<?xml version="1.0" encoding="UTF-8"?>
<!DOCTYPE svg PUBLIC "-//W3C//DTD SVG 1.0//EN" "http://www.w3.org/TR/2001/REC-SVG-20010904/DTD/svg10.dtd">
<!-- Creator: CorelDRAW 2021 (64-Bit) -->
<svg xmlns="http://www.w3.org/2000/svg" xml:space="preserve" width="12.7mm" height="12.7mm" version="1.0" style="shape-rendering:geometricPrecision; text-rendering:geometricPrecision; image-rendering:optimizeQuality; fill-rule:evenodd; clip-rule:evenodd"
viewBox="0 0 3.64 3.64"
 xmlns:xlink="http://www.w3.org/1999/xlink"
 xmlns:xodm="http://www.corel.com/coreldraw/odm/2003">
 <defs>
  <style type="text/css">
   <![CDATA[
    .fil0 {fill:#990000}
    .fil1 {fill:white}
   ]]>
  </style>
 </defs>
 <g id="Livello_x0020_1">
  <metadata id="CorelCorpID_0Corel-Layer"/>
  <path class="fil0" d="M0.44 0l2.77 0c0.24,0 0.44,0.2 0.44,0.44l0 2.77c0,0.24 -0.2,0.44 -0.44,0.44l-2.77 0c-0.24,0 -0.44,-0.2 -0.44,-0.44l0 -2.77c0,-0.24 0.2,-0.44 0.44,-0.44z"/>
  <path class="fil1" d="M1.25 2.58c0.04,0.2 0.17,0.3 0.17,0.4 0,0.1 -0.04,0.2 -0.17,0.2 -0.12,0 -0.17,-0.1 -0.17,-0.2 0,-0.1 0.12,-0.2 0.17,-0.4zm0.58 0c0.04,0.2 0.17,0.3 0.17,0.4 0,0.1 -0.04,0.2 -0.17,0.2 -0.12,0 -0.17,-0.1 -0.17,-0.2 0,-0.1 0.12,-0.2 0.17,-0.4zm0.58 0c0.04,0.2 0.17,0.3 0.17,0.4 0,0.1 -0.04,0.2 -0.17,0.2 -0.12,0 -0.17,-0.1 -0.17,-0.2 0,-0.1 0.12,-0.2 0.17,-0.4zm0.44 -0.08c-0.08,0 -0.15,-0.06 -0.15,-0.15 0,-0.08 0.06,-0.15 0.15,-0.15 0.08,0 0.15,-0.06 0.15,-0.15l0 -1.16c0,-0.08 -0.06,-0.15 -0.15,-0.15l-2.03 0c-0.08,0 -0.15,0.06 -0.15,0.15l0 1.16c0,0.08 0.06,0.15 0.15,0.15l1.45 0c0.08,0 0.15,0.06 0.15,0.15 0,0.08 -0.06,0.15 -0.15,0.15l-1.45 0c-0.24,0 -0.44,-0.19 -0.44,-0.44l0 -1.16c0,-0.24 0.19,-0.44 0.44,-0.44l2.03 0c0.24,0 0.44,0.19 0.44,0.44l0 1.16c0,0.24 -0.19,0.44 -0.44,0.44l0 0zm-0.39 -1.2c-0.03,-0.03 -0.04,-0.06 -0.04,-0.1l0 0c0,-0.04 0.02,-0.08 0.04,-0.1l0 0c0.03,-0.03 0.06,-0.04 0.1,-0.04l0 0c0.04,0 0.08,0.02 0.1,0.04l0 0c0.03,0.03 0.04,0.06 0.04,0.1l0 0c-0,0.04 -0.02,0.08 -0.04,0.1l0 0c-0.03,0.03 -0.06,0.04 -0.1,0.04l0 0c-0.04,-0 -0.08,-0.02 -0.1,-0.04l0 0zm0.1 0.62l-1.45 0c-0.08,0 -0.15,-0.06 -0.15,-0.15 0,-0.08 0.06,-0.15 0.15,-0.15l1.45 0c0.08,0 0.15,0.06 0.15,0.15 0,0.08 -0.06,0.15 -0.15,0.15l0 0z"/>
 </g>
</svg>
