<?xml version="1.0" encoding="UTF-8"?>
<!DOCTYPE svg PUBLIC "-//W3C//DTD SVG 1.0//EN" "http://www.w3.org/TR/2001/REC-SVG-20010904/DTD/svg10.dtd">
<!-- Creator: CorelDRAW 2021 (64-Bit) -->
<svg xmlns="http://www.w3.org/2000/svg" xml:space="preserve" width="12.7mm" height="12.7mm" version="1.0" style="shape-rendering:geometricPrecision; text-rendering:geometricPrecision; image-rendering:optimizeQuality; fill-rule:evenodd; clip-rule:evenodd"
viewBox="0 0 3.67 3.67"
 xmlns:xlink="http://www.w3.org/1999/xlink"
 xmlns:xodm="http://www.corel.com/coreldraw/odm/2003">
 <defs>
  <style type="text/css">
   <![CDATA[
    .fil0 {fill:#990000}
    .fil1 {fill:white;fill-rule:nonzero}
   ]]>
  </style>
 </defs>
 <g id="Livello_x0020_1">
  <metadata id="CorelCorpID_0Corel-Layer"/>
  <path class="fil0" d="M0.44 0l2.79 0c0.24,0 0.44,0.2 0.44,0.44l0 2.79c0,0.24 -0.2,0.44 -0.44,0.44l-2.79 0c-0.24,0 -0.44,-0.2 -0.44,-0.44l0 -2.79c0,-0.24 0.2,-0.44 0.44,-0.44z"/>
  <path id="XMLID_242_" class="fil1" d="M3.09 2.84c0.02,-0.14 0.12,-0.33 0.23,-0.42 0.02,-0.01 0.02,-0.04 0.01,-0.06 -0.01,-0.02 -0.03,-0.02 -0.05,-0.01 -0.17,0.08 -0.36,0.29 -0.42,0.49l-0.02 0 0 -1.26c0,-0.56 -0.45,-1.01 -1.01,-1.01 -0.56,0 -1.01,0.45 -1.01,1.01l0 1.26 -0.02 0c-0.06,-0.21 -0.25,-0.41 -0.42,-0.49 -0.02,-0.01 -0.04,-0 -0.05,0.01 -0.02,0.02 -0.01,0.04 0.01,0.06 0.11,0.09 0.21,0.28 0.23,0.42l-0.26 0 0 0.25 3.02 0 0 -0.25 -0.24 0zm-1.64 -0.69l0 -0.13c0,-0.03 0.03,-0.06 0.06,-0.06l0.63 0c0.03,0 0.06,0.03 0.06,0.06l0 0.13c0,0.03 -0.03,0.06 -0.06,0.06l-0.63 0c-0.03,0 -0.06,-0.03 -0.06,-0.06zm-0.25 -0.63c0,-0.03 0.03,-0.06 0.06,-0.06l1.13 0c0.03,0 0.06,0.03 0.06,0.06l0 0.13c0,0.03 -0.03,0.06 -0.06,0.06l-1.13 0c-0.03,0 -0.06,-0.03 -0.06,-0.06l0 -0.13z"/>
 </g>
</svg>
