<?xml version="1.0" encoding="UTF-8"?>
<!DOCTYPE svg PUBLIC "-//W3C//DTD SVG 1.0//EN" "http://www.w3.org/TR/2001/REC-SVG-20010904/DTD/svg10.dtd">
<!-- Creator: CorelDRAW 2021 (64-Bit) -->
<svg xmlns="http://www.w3.org/2000/svg" xml:space="preserve" width="12.7mm" height="12.7mm" version="1.0" style="shape-rendering:geometricPrecision; text-rendering:geometricPrecision; image-rendering:optimizeQuality; fill-rule:evenodd; clip-rule:evenodd"
viewBox="0 0 3.63 3.63"
 xmlns:xlink="http://www.w3.org/1999/xlink"
 xmlns:xodm="http://www.corel.com/coreldraw/odm/2003">
 <defs>
  <style type="text/css">
   <![CDATA[
    .fil0 {fill:#990000}
    .fil1 {fill:white}
   ]]>
  </style>
 </defs>
 <g id="Livello_x0020_1">
  <metadata id="CorelCorpID_0Corel-Layer"/>
  <path class="fil0" d="M0.44 0l2.76 0c0.24,0 0.44,0.2 0.44,0.44l0 2.76c0,0.24 -0.2,0.44 -0.44,0.44l-2.76 0c-0.24,0 -0.44,-0.2 -0.44,-0.44l0 -2.76c0,-0.24 0.2,-0.44 0.44,-0.44z"/>
  <g id="_2312440635392">
   <path class="fil1" d="M2.24 2.61l0 0.28 -0.22 0 0 -0.22 -0.11 0 0 0.22 -0.22 0 0 -0.22 -0.11 0 0 0.22 -0.22 0 0 -0.28c-0,-0 -0.01,-0 -0.01,-0.01l-0.04 -0.05c-0.01,-0.01 -0.02,-0.02 -0.02,-0.02l-0 -0.01c-0,-0 -0,-0 -0,-0 -0.01,-0.01 -0,-0 -0.01,-0.01l-0.02 -0.03c-0,-0 -0,-0 -0,-0 -0,-0 -0,-0 -0,-0 -0,-0 -0,-0 -0,-0l-0.03 -0.05c-0,-0 -0,-0 -0,-0 -0,-0 -0,-0 -0,-0l-0.01 -0.03c-0,-0 -0,-0 -0,-0l-0.01 -0.03c-0,-0 -0,-0 -0,-0l-0 -0.01c-0,-0 -0,-0 -0,-0l-0.01 -0.02c-0,-0 -0,-0 -0,-0 -0,-0 -0,-0 -0,-0 -0,-0 -0,-0 -0,-0l-0 -0.02c-0,-0 -0,-0 -0,-0l-0 -0.01c-0,-0 -0,-0 -0,-0 -0,-0 -0,-0 -0,-0.01l-0 -0c0,-0 -0,-0 -0,-0 -0,-0 -0,-0 -0,-0.01l-0 -0.01c-0,-0.01 -0.01,-0.03 -0.01,-0.04 -0,-0.01 -0,-0.01 -0,-0.02 0,-0 0,-0.01 -0,-0.01 -0,-0.01 -0,-0 -0,-0.01 -0,-0.01 -0,-0.02 -0,-0.04 -0,-0 0,0 -0,-0 -0,-0.01 -0,-0 -0,-0 -0,-0.01 -0,-0.03 -0,-0.05 0,-0 0,-0 0,-0.01l0 -0.02c-0,-0.03 0,-0.02 0,-0.04 0,-0.01 0,-0 0,-0.01 0,-0.01 -0,-0.01 0,-0.01l0 -0.02c0,-0 0,-0 0,-0l0.02 -0.07c0,-0 0,-0 0,-0l0 -0c0,-0 0,-0 0,-0l0.02 -0.05c0,-0.01 0.01,-0.01 0.01,-0.02 0,-0 0,-0 0,-0l0.01 -0.02c0,-0 0,-0 0,-0l0.02 -0.04c0,-0 0,-0 0,-0l0.03 -0.04c0,-0 0,-0 0,-0 0,-0 0,0 0,-0 0,-0 -0,0 0,-0l0.01 -0.02c0,-0.01 0.01,-0.01 0.01,-0.02 0,-0 0,-0 0,-0l0.01 -0.01c0.02,-0.02 0.04,-0.04 0.06,-0.05 0.01,-0.01 0.01,-0.01 0.02,-0.02l0.04 -0.03c0,-0 0,-0 0,-0l0.01 -0c0,-0 -0,0 0,-0 0,-0 0,-0 0,-0l0.02 -0.01c0,-0 0,-0 0,-0l0.07 -0.03c0,-0 0,-0 0,-0l0.1 -0.04c0,-0 0,-0 0,-0l0.01 -0c0,-0 0,-0 0.01,-0l0.03 -0.01c0,-0 0,-0 0,-0l0.03 -0.01c0.01,-0 0.02,-0 0.03,-0 0.01,0 0.02,0 0.03,-0l0 -0c0.01,-0 0.03,-0 0.04,-0 0,0 0.01,-0 0.01,0 0.01,0 0,0 0.01,0 0.01,0 0.03,-0 0.04,0 0.01,0 0.01,-0 0.03,0 0,0 0,0 0,0 0,0 0.01,-0 0.01,0 0.01,0 -0,0 0.01,0l0.01 0c0,0 0,0 0,0 0,0 0,0 0,0l0.07 0.02c0,0 0,0 0,0l0.05 0.02c0,0 0,0 0,0l0 0c0,0 0,0 0,0l0.01 0.01c0,0 0,0 0,0l0.02 0.01c0,0 0,0 0,0 0,0 0,0 0,0l0.05 0.03c0,0 0,0 0,0 0,0 0,0 0,0l0 0c0,0 0,0 0,0l0.01 0.01c0,0 0,0 0,0l0.03 0.02c0,0 0,0 0,0l0 0c0.01,0 0.01,0.01 0.01,0.01 0,0 0,0 0,0 0,0 0,0 0,0l0.07 0.07c0,0 0,0 0,0l0 0.01c0,0 0,0 0,0 0,0 0,0 0,0 0,0 0,0 0,0 0,0 -0,-0 0,0l0.06 0.1c0,0 0,0 0,0l0 0c0,0 0,0 0,0l0.01 0.01c0,0 0,0 0,0l0.01 0.02c0,0 0,0 0,0l0.01 0.01c0,0 0,0 0,0 0,0 0,0 0,0 0,0 0,0 0,0l0.02 0.04c0,0 0,0 0,0l0.02 0.08c0,0.01 0,0.01 0,0.01l0 0.01c0,0.01 0,-0 0,0.01 0,0 -0,0.01 0,0.02 0,0.01 0,-0 0,0.01 0,0.01 -0,0.02 0,0.03 0,0.01 0,-0 0,0.01 0,0.01 0,0.04 -0,0.05l-0 0.01c0,0.01 0,0.02 -0,0.04 -0,0.01 0,0.02 -0,0.02 -0,0.01 -0,0.01 -0,0.02l-0.01 0.03c-0,0 -0,0 -0,0l-0.02 0.07c-0,0 -0,0 -0,0.01l-0.01 0.03c-0,0 -0,0 -0,0l-0 0.01c-0,0 -0,0 -0,0l-0.01 0.01c-0,0 -0,0 -0,0l-0.01 0.01c-0,0 -0,0 -0,0l-0 0.01c-0,0 -0,0 -0,0l-0.02 0.03c-0,0 -0,0 -0,0 -0,0 -0,0 -0,0l-0.02 0.03c-0.01,0.01 -0.01,0.02 -0.02,0.03l-0.03 0.03c-0,0 -0,0 -0,0 -0,0 -0,0 -0,0l-0.01 0.01c-0,0 0,-0 -0,0l-0.04 0.04c-0,0 -0,0.01 -0.01,0.01zm-0.97 -1.44c-0,0 -0.01,0 -0.01,0 -0.01,0 -0,0 -0.01,0l-0.01 0c-0,0 -0,0 -0,0l-0.04 0.01c-0,0 -0,0 -0,0l-0.03 0.01c-0,0 -0,0 -0,0 -0,0 -0,0 -0,0l-0.02 0.01c-0,0 -0,0 -0,0l-0.01 0.01c-0,0 -0,0 -0,0l-0.02 0.01c-0,0 -0,0 -0,0l-0.02 0.01c-0,0 0,-0 -0,0 -0,0 -0,0 -0,0l-0.05 0.03c-0,0 -0,0 -0,0 -0,0 -0,0 -0,0 -0,0 -0,0 -0,0l-0.03 0.02c-0,0 -0.01,0.01 -0.01,0.01 -0.01,0.01 -0.01,0.01 -0.02,0.02l-0.01 0.01c-0.01,0.01 -0.06,0.06 -0.06,0.06l-0 0c-0,0 -0,0 -0,0l-0.03 0.04c-0,0 -0,0 -0,0l-0.02 0.04c-0,0 -0,0 -0,0 -0,0 -0,0 -0,0 -0,0 -0,0 -0,0l-0.01 0.01c-0,0 -0,0 -0,0l-0 0c-0,0 -0,0 -0,0 -0,0 -0,0 -0,0l-0.01 0.03c-0,0 -0,0 -0,0l-0.01 0.02c-0,0 -0,0 -0,0l-0.02 0.05c-0,0 -0,0 -0,0 -0,0 -0,0 -0,0 -0,0 -0,0 -0,0l-0 0.02c-0,0.01 0,-0 -0,0l-0 0.01c-0,0 -0,0 -0,0l-0.01 0.04c-0,0 -0,-0 -0,0 -0,0 -0,0 -0,0.01 -0,0.01 0,-0 -0,0 -0,0.01 -0,0 -0,0l-0 0.02c-0,0.01 0,0.02 -0,0.03 -0,0.01 -0,0.27 -0,0.29l0 0.94c0,0.03 -0,0.24 0,0.25l0 0c0,0 0,0 0,0 0,0.01 0,0.01 0.01,0.03 0,0 0,0 0,0 0,0 0,0 0,0l0.02 0.02c0,0 0,0 0,0l0.02 0.01c0,0 0,0 0,0l0.01 0c0,0 0,0 0,0 0.02,0.01 0.03,0 0.06,0 0.18,0 1.92,0 1.93,-0 0.01,-0 0,-0 0.01,-0 0,-0 0,-0 0.01,-0l0 -0c0,-0 0,-0 0,-0l0.03 -0.01c0,-0 0,-0 0,-0l0 -0c0.01,-0.01 0.02,-0.01 0.02,-0.02 0,-0 0,-0 0,-0l0.01 -0.01c0,-0 0,-0 0,-0l0.01 -0.01c0,-0.01 0,-0.01 0,-0.02 -0,-0.15 0,-1.46 -0,-1.47 -0,-0.01 -0,-0 -0,-0.01 -0,-0 0,-0.01 -0,-0.02 -0,-0.01 -0,0 -0,-0.01 -0,-0.01 0,-0.01 -0,-0.02 -0,-0 -0,-0 -0,-0l-0 -0.01c-0,-0 0,-0 -0,-0.01 -0,-0 -0,-0 -0,-0 -0,-0 -0,-0 -0,-0l-0.02 -0.08c-0,-0 -0,-0 -0,-0l-0 -0.01c-0,-0 -0,-0 -0,-0l-0 -0.01c-0,-0 -0,-0 -0,-0l-0 -0.01c-0,-0 -0,-0 -0,-0l-0.01 -0.01c-0,-0 -0,-0 -0,-0l-0.05 -0.09c-0,-0 -0,-0 -0,-0l-0.03 -0.04c-0,-0.01 -0.01,-0.01 -0.02,-0.02l-0.08 -0.08c-0.01,-0.01 -0.01,-0.01 -0.02,-0.02l-0.02 -0.01c-0,-0 -0,-0 -0,-0l-0.03 -0.02c-0,-0 0,0 -0,-0l-0.01 -0.01c-0.01,-0.01 -0.01,-0 -0.02,-0.01l-0.08 -0.04c-0,-0 -0,-0 -0,-0l-0.01 -0c-0,-0 -0,-0 -0,-0l-0.03 -0.01c-0,-0 -0,-0 -0,-0 -0,-0 -0,-0 -0.01,-0l-0.01 -0c-0,-0 -0,-0 -0,-0l-0 -0c-0,-0 -0,-0 -0,-0l-0.04 -0.01c-0.01,-0 -0,-0 -0.01,-0 -0,-0 -0,0 -0.01,-0 -0.01,-0 -0,0 -0.01,-0 -0.01,-0 -0,0 -0,-0.02 0,-0.1 0,-0.21 0,-0.31l-1.08 0 0 0.31c0,0.01 0,0.02 -0,0.02z"/>
   <path class="fil1" d="M1.38 0.63l0.86 0 -0 -0.24c-0,-0 -0,-0 -0,-0l-0.02 -0.04c-0,-0.01 0,-0 -0.01,-0.01 -0,-0 -0,-0 -0.01,-0.01 -0.01,-0.01 -0.01,-0 -0.01,-0.01 -0,-0 -0,-0 -0,-0 -0,-0 -0,-0 -0,-0l-0 -0c-0,-0 -0,-0 -0,-0l-0.01 -0.01c-0,-0 0,0 -0,-0 -0,-0 -0,-0 -0.01,-0 -0.01,-0 0,-0 -0.02,-0 -0.2,0 -0.41,0 -0.61,0 -0.02,0 -0.05,-0 -0.07,0 -0,0 -0,0 -0,0 -0.01,0 -0,-0 -0.01,0l-0.03 0.01 -0.02 0.02c-0.01,0.01 -0.01,0.02 -0.01,0.03 -0,0 -0,0 -0,0.01 -0,0 -0,0 -0,0 -0,0 -0,-0 -0,0l-0 0.24z"/>
   <path class="fil1" d="M2.05 2.03l-0.01 0c-0,0 -0,0 -0,0 -0,0 -0,0 -0,0l-0.01 0c-0,0 -0,0 -0,0l-0.03 0.02c-0,0 -0,0 -0,0 -0,0 -0,0 -0,0 -0,0 -0,0 -0,0l-0.01 0.01c-0,0 -0,0 -0,0l-0.04 0.05c-0,0 -0,0 -0,0 -0,0 -0,0 -0,0l-0.01 0.02c-0,0 -0,0 -0,0l-0 0.01c-0,0 -0,0 -0,0 -0,0 -0,0 -0,0 -0,0 -0,0 -0,0 -0,0 -0,0 -0,0 -0,0.01 -0,0.05 0,0.06l0.01 0.02c0,0 0,0 0,0l0.01 0.02c0,0 0,0 0,0l0.01 0.01c0,0 0,0 0,0l0 0c0,0 0,0 0,0 0,0 0,0 0,0l0.04 0.04c0,0 -0,0 0,0l0.02 0.01c0,0 -0,-0 0,0 0,0 0,0 0,0l0.01 0c0,0 0,0 0,0 0,0 0,0 0,0 0,0 0,0 0,0 0,0 0,0 0,0l0.01 0c0,0 0,0 0,0 0,0 0,0 0,0l0.01 0c0.01,0 0.03,0 0.04,0l0.02 -0c0,-0 0,-0 0,-0l0.01 -0c0,-0 0,-0 0,-0l0.03 -0.01c0,-0 0,-0 0,-0l0.03 -0.02c0.01,-0 0.01,-0.01 0.02,-0.02l0.02 -0.02c0,-0 0,-0 0,-0l0.01 -0.01c0,-0 0,-0 0,-0 0,-0 0,-0 0,-0l0 -0.01c0,-0 0,-0 0,-0l0 -0.02c0,-0.01 0,-0.05 -0,-0.06 -0,-0 -0,-0 -0,-0l-0 -0.01c-0,-0 -0,-0 -0,-0l-0 -0.01c-0,-0 -0,-0 -0,-0 -0,-0 -0,-0 -0,-0l-0.01 -0.02c-0,-0 -0,-0 -0,-0 -0,-0 -0,-0 -0,-0l-0 -0.01c-0,-0 -0,-0 -0,-0 -0,-0 -0,-0 -0,-0l-0.04 -0.04c-0,-0 0,-0 -0,-0l-0.06 -0.03c-0.01,-0 -0.05,-0 -0.06,0z"/>
   <path class="fil1" d="M1.51 2.03c-0,0 -0,-0 -0,0l-0.03 0.01c-0,0 -0,0 -0,0 -0,0 -0,0 -0,0l-0.02 0.01c-0,0 -0,0 -0,0 -0,0 -0,0 -0,0l-0.01 0.01c-0,0 -0,0 -0,0 -0,0 -0,0 -0,0l-0.01 0.01c-0,0 -0,0 -0,0l-0.01 0.01c-0,0 -0,0 -0,0l-0.01 0.01c-0,0 -0,0 -0,0l-0.01 0.03c-0,0 -0,0 -0,0 -0,0 -0,0 -0,0l-0 0.01c-0,0 -0,0 -0,0 -0,0.01 -0,0.05 0,0.06l0 0.01c0,0 0,0 0,0l0 0.01c0,0 0,0 0,0l0 0.01c0,0 0,0 0,0l0.01 0.02c0,0 0,0 0,0l0 0c0,0.01 0.01,0.01 0.01,0.02l0 0c0.01,0.01 0.02,0.01 0.02,0.02 0,0 0,0 0,0l0.02 0.01c0,0 0,0 0,0l0.02 0.01c0,0 0,0 0,0 0,0 0,0 0,0l0.01 0c0,0 0,0 0,0 0,0 0,0 0,0l0 0c0.02,0.01 0.03,0 0.05,0l0.02 -0c0,-0 0,-0 0,-0l0.02 -0.01c0,-0 0,-0 0,-0 0,-0 0,-0 0,-0l0.05 -0.03c0.01,-0 0.01,-0.01 0.02,-0.01l0.01 -0.02c0,-0 0,-0 0,-0l0.02 -0.06c0,-0.01 0,-0.04 0,-0.05l-0.01 -0.03c-0,-0 -0,-0 -0,-0l-0.02 -0.04c-0,-0 -0,-0 -0,-0l-0.06 -0.06c-0,-0 0,0 -0,-0 -0,-0 -0,-0 -0,-0l-0.02 -0.01c-0,-0 -0,-0 -0,-0 -0,-0 -0,-0 -0,-0l-0.02 -0c-0.01,-0 -0.04,-0 -0.05,-0 -0,0 -0,0 -0,0 -0,0 -0,0 -0,0z"/>
  </g>
 </g>
</svg>
