<?xml version="1.0" encoding="UTF-8"?>
<!DOCTYPE svg PUBLIC "-//W3C//DTD SVG 1.0//EN" "http://www.w3.org/TR/2001/REC-SVG-20010904/DTD/svg10.dtd">
<!-- Creator: CorelDRAW 2021 (64-Bit) -->
<svg xmlns="http://www.w3.org/2000/svg" xml:space="preserve" width="12.7mm" height="12.7mm" version="1.0" style="shape-rendering:geometricPrecision; text-rendering:geometricPrecision; image-rendering:optimizeQuality; fill-rule:evenodd; clip-rule:evenodd"
viewBox="0 0 3.67 3.67"
 xmlns:xlink="http://www.w3.org/1999/xlink"
 xmlns:xodm="http://www.corel.com/coreldraw/odm/2003">
 <defs>
  <style type="text/css">
   <![CDATA[
    .fil0 {fill:#990000}
    .fil1 {fill:white;fill-rule:nonzero}
   ]]>
  </style>
 </defs>
 <g id="Livello_x0020_1">
  <metadata id="CorelCorpID_0Corel-Layer"/>
  <path class="fil0" d="M0.44 0l2.79 0c0.24,0 0.44,0.2 0.44,0.44l0 2.79c0,0.24 -0.2,0.44 -0.44,0.44l-2.79 0c-0.24,0 -0.44,-0.2 -0.44,-0.44l0 -2.79c0,-0.24 0.2,-0.44 0.44,-0.44z"/>
  <path class="fil1" d="M2.21 1.65c-0.1,0 -0.19,-0.08 -0.19,-0.19 0,-0.1 0.08,-0.19 0.19,-0.19 0.1,0 0.19,0.08 0.19,0.19 0,0.1 -0.08,0.19 -0.19,0.19zm-0.75 0c-0.1,0 -0.19,-0.08 -0.19,-0.19 0,-0.1 0.08,-0.19 0.19,-0.19 0.1,0 0.19,0.08 0.19,0.19 0,0.1 -0.08,0.19 -0.19,0.19zm0.34 -1.31c-0.61,0.02 -1.08,0.55 -1.08,1.17l0 1.54c0,0.08 0.1,0.12 0.16,0.07l0.15 -0.11c0.04,-0.03 0.09,-0.02 0.13,0.01l0.25 0.28c0.04,0.04 0.1,0.04 0.13,0l0.24 -0.27c0.04,-0.04 0.1,-0.04 0.14,0l0.24 0.27c0.04,0.04 0.1,0.04 0.13,0l0.25 -0.28c0.03,-0.04 0.09,-0.04 0.13,-0.01l0.15 0.11c0.06,0.06 0.16,0.02 0.16,-0.07l0 -1.59c0,-0.63 -0.52,-1.14 -1.15,-1.12z"/>
 </g>
</svg>
