<?xml version="1.0" encoding="UTF-8"?>
<!DOCTYPE svg PUBLIC "-//W3C//DTD SVG 1.0//EN" "http://www.w3.org/TR/2001/REC-SVG-20010904/DTD/svg10.dtd">
<!-- Creator: CorelDRAW 2021 (64-Bit) -->
<svg xmlns="http://www.w3.org/2000/svg" xml:space="preserve" width="12.7mm" height="12.7mm" version="1.0" style="shape-rendering:geometricPrecision; text-rendering:geometricPrecision; image-rendering:optimizeQuality; fill-rule:evenodd; clip-rule:evenodd"
viewBox="0 0 3.62 3.62"
 xmlns:xlink="http://www.w3.org/1999/xlink"
 xmlns:xodm="http://www.corel.com/coreldraw/odm/2003">
 <defs>
  <style type="text/css">
   <![CDATA[
    .fil0 {fill:#990000}
    .fil1 {fill:white}
   ]]>
  </style>
 </defs>
 <g id="Livello_x0020_1">
  <metadata id="CorelCorpID_0Corel-Layer"/>
  <path class="fil0" d="M0.43 0l2.75 0c0.24,0 0.43,0.2 0.43,0.43l0 2.75c0,0.24 -0.2,0.43 -0.43,0.43l-2.75 0c-0.24,0 -0.43,-0.2 -0.43,-0.43l0 -2.75c0,-0.24 0.2,-0.43 0.43,-0.43z"/>
  <path class="fil1" d="M0.51 1.02l2.61 0 0 -0.43c0,-0.08 -0.06,-0.14 -0.14,-0.14l-2.33 0c-0.08,0 -0.14,0.06 -0.14,0.14l0 0.43zm2.28 -0.35c0.06,0 0.12,0.05 0.12,0.12 0,0.06 -0.05,0.12 -0.12,0.12 -0.06,0 -0.12,-0.05 -0.12,-0.12 0,-0.06 0.05,-0.12 0.12,-0.12zm-0.34 0c0.06,0 0.12,0.05 0.12,0.12 0,0.06 -0.05,0.12 -0.12,0.12 -0.06,0 -0.12,-0.05 -0.12,-0.12 0,-0.06 0.05,-0.12 0.12,-0.12zm-1.93 0.46l2.61 0 0 1.91c0,0.08 -0.06,0.14 -0.14,0.14l-2.33 0c-0.08,0 -0.14,-0.06 -0.14,-0.14l0 -1.91zm1.3 0.22c0.41,0 0.73,0.33 0.73,0.73 0,0.41 -0.33,0.73 -0.73,0.73 -0.41,0 -0.73,-0.33 -0.73,-0.73 0,-0.41 0.33,-0.73 0.73,-0.73zm0 0.1c-0.33,0 -0.6,0.23 -0.6,0.52 0,0.16 0.09,0.31 0.22,0.41 0.02,0.02 0.04,0.04 0.03,0.07l-0.03 0.16c-0,0.02 0.01,0.04 0.04,0.04l0.19 0 0 -0.13c0,-0.01 0.01,-0.02 0.02,-0.02l0.04 0c0.01,0 0.02,0.01 0.02,0.02l0 0.13 0.15 0 0 -0.13c0,-0.01 0.01,-0.02 0.02,-0.02l0.04 0c0.01,0 0.02,0.01 0.02,0.02l0 0.13 0.19 0c0.02,0 0.04,-0.02 0.04,-0.04l-0.03 -0.16c-0,-0.03 0.01,-0.05 0.03,-0.07 0.13,-0.1 0.22,-0.24 0.22,-0.41 0,-0.29 -0.27,-0.52 -0.6,-0.52zm-0.22 0.75c-0.08,0 -0.15,-0.07 -0.15,-0.15 0,-0.08 0.07,-0.15 0.15,-0.15 0.08,0 0.15,0.07 0.15,0.15 0,0.08 -0.07,0.15 -0.15,0.15zm0.45 0c-0.08,0 -0.15,-0.07 -0.15,-0.15 0,-0.08 0.07,-0.15 0.15,-0.15 0.08,0 0.15,0.07 0.15,0.15 0,0.08 -0.07,0.15 -0.15,0.15z"/>
 </g>
</svg>
