<?xml version="1.0" encoding="UTF-8"?>
<!DOCTYPE svg PUBLIC "-//W3C//DTD SVG 1.0//EN" "http://www.w3.org/TR/2001/REC-SVG-20010904/DTD/svg10.dtd">
<!-- Creator: CorelDRAW 2021 (64-Bit) -->
<svg xmlns="http://www.w3.org/2000/svg" xml:space="preserve" width="12.7mm" height="12.7mm" version="1.0" style="shape-rendering:geometricPrecision; text-rendering:geometricPrecision; image-rendering:optimizeQuality; fill-rule:evenodd; clip-rule:evenodd"
viewBox="0 0 3.74 3.74"
 xmlns:xlink="http://www.w3.org/1999/xlink"
 xmlns:xodm="http://www.corel.com/coreldraw/odm/2003">
 <defs>
  <style type="text/css">
   <![CDATA[
    .fil0 {fill:#990000}
    .fil1 {fill:white}
   ]]>
  </style>
 </defs>
 <g id="Livello_x0020_1">
  <metadata id="CorelCorpID_0Corel-Layer"/>
  <path class="fil0" d="M0.45 0l2.84 0c0.25,0 0.45,0.2 0.45,0.45l0 2.84c0,0.25 -0.2,0.45 -0.45,0.45l-2.84 0c-0.25,0 -0.45,-0.2 -0.45,-0.45l0 -2.84c0,-0.25 0.2,-0.45 0.45,-0.45z"/>
  <path class="fil1" d="M3.09 3.19c0.1,0.01 0.11,-0.07 0.09,-0.12 -0.01,-0.03 -0.03,-0.05 -0.05,-0.07 -0.02,-0.02 -0.04,-0.04 -0.05,-0.07 -0.04,-0.08 -0.06,-0.17 -0.09,-0.26 -0.02,-0.06 -0.04,-0.12 -0.05,-0.18 -0.02,-0.06 -0.03,-0.13 -0.03,-0.2 0,-0.09 0.01,-0.27 0.05,-0.34 0.02,-0.04 0.05,-0.08 0.07,-0.12 0.02,-0.05 0.03,-0.1 0.03,-0.16 0,-0.1 -0.02,-0.19 -0.02,-0.29 -0,-0.15 0.08,-0.29 0.06,-0.41 -0.01,-0.03 -0.02,-0.06 -0.02,-0.09 -0,-0.03 0,-0.07 0.01,-0.1 0.01,-0.03 0.02,-0.06 0.03,-0.08 0.01,-0.03 0.02,-0.06 0.02,-0.09l-0.02 -0.01c-0.01,-0.01 -0.02,-0.02 -0.04,-0.03 -0.01,-0.01 -0.06,-0.03 -0.07,-0.03 -0.01,0.02 -0.01,0.04 -0.01,0.06l-0.02 -0c0,-0.02 0.01,-0.05 0.01,-0.06 -0.01,-0.01 -0.08,-0.03 -0.09,-0.03l-0.01 0.04 -0.02 -0c-0,-0.02 0.01,-0.03 0.01,-0.05 -0.01,-0.01 -0.1,-0.03 -0.11,-0.03 -0,0.01 -0,0.02 -0,0.02 -0,0.01 -0,0.03 -0.02,0.02l0.01 -0.04c-0.02,-0.01 -0.06,-0.02 -0.09,-0.02 -0.02,-0.01 -0.07,-0.02 -0.09,-0.02 -0,0.01 -0.01,0.03 -0.01,0.04l-0.01 -0c-0,-0.02 0.01,-0.03 0.01,-0.04l-0.11 -0.02 -0.01 0.04 -0.02 -0 0.01 -0.05c-0.02,-0 -0.05,-0.01 -0.06,0 -0.01,0.01 -0.02,0.05 -0.03,0.06l-0.02 -0c-0,-0.02 0.01,-0.04 0.02,-0.05 -0.01,0 -0.03,0.01 -0.04,0.02 -0.02,0.01 -0.02,0.02 -0.02,0.03 -0.01,0.01 -0.01,0.02 -0.02,0.03l-0.08 0.17c-0.04,0.09 -0.08,0.19 -0.13,0.28 -0.04,0.09 -0.09,0.19 -0.14,0.27 -0.02,0.03 -0.07,0.09 -0.09,0.11 -0.01,0.01 -0.02,0.02 -0.02,0.03l-0.04 0.04c-0.02,0.03 -0.06,0.07 -0.08,0.09l-0.15 0.16c-0.02,0.02 -0.03,0.04 -0.05,0.05 -0.01,0.01 -0.02,0.02 -0.03,0.02 -0.01,0.01 -0.02,0.02 -0.03,0.02l-0.07 0.06c-0,0 -0,0 -0.01,0.01 -0,0 -0,0 -0.01,0.01 -0,0 -0,0 -0.01,0.01l-0.11 0.09c-0.05,0.04 -0.1,0.07 -0.15,0.1 -0.08,0.05 -0.17,0.09 -0.25,0.15 -0.22,0.18 -0.09,0.42 -0.16,0.65 -0.02,0.05 -0.04,0.1 -0.06,0.14 -0.02,0.04 -0.07,0.08 -0.06,0.14 0,0.03 0.01,0.02 0.03,0.03 0,0 0.01,0.01 0.01,0.01 0.07,0.07 0.16,-0 0.23,-0.05 0,-0 0.03,-0.02 0.03,-0.02l0.05 -0.1c0.02,-0.04 0.04,-0.09 0.06,-0.14 0.04,-0.12 0.06,-0.21 0.07,-0.34 0,-0.04 0.02,-0.04 0.05,-0.05 0.02,-0.01 0.06,-0.02 0.07,-0.03 0.01,-0.02 0.07,-0.09 0.09,-0.11l0.14 -0.17c0,-0.01 0.01,-0.01 0.01,-0.01 0,-0 0.01,-0.01 0.01,-0.01 0,-0 0.02,-0.03 0.03,-0.02 0,0.01 0,0.01 -0,0.01l-0.03 0.03c-0.04,0.05 -0.22,0.27 -0.24,0.31 -0.03,0.06 -0.01,0.13 0.01,0.19 0.01,0.02 0.02,0.04 0.02,0.06 0,0.01 0.01,0.01 0.01,0.03 0.01,0.03 0.02,0.06 0.02,0.09 0.04,0.23 -0.03,0.32 -0.03,0.43 0,0.06 0.04,0.12 0.11,0.11 0.04,-0.01 0.07,-0.03 0.09,-0.05l0.04 -0.04c0,-0 0.01,-0.01 0.01,-0.02 0,-0.01 0.01,-0.01 0.01,-0.02 0.09,-0.13 0.09,-0.3 0.07,-0.46 -0,-0.03 -0.02,-0.11 -0.01,-0.14 0.01,-0.03 0.07,-0.12 0.09,-0.15 0.02,-0.03 0.01,-0.03 0.04,-0.04l0 0c0.03,0.01 0.04,0.03 0.04,0.06 0.01,0.03 0.01,0.06 0.01,0.09 -0,0.07 -0.02,0.11 -0.05,0.15 -0.02,0.03 -0.07,0.08 -0.07,0.13 -0.01,0.07 0.03,0.11 0.1,0.09 0.05,-0.01 0.08,-0.03 0.12,-0.06 0.01,-0.01 0.03,-0.02 0.04,-0.04 0.02,-0.03 0.04,-0.06 0.06,-0.09 0.02,-0.04 0.03,-0.11 0.04,-0.16 0.01,-0.06 0.02,-0.12 0.02,-0.19 0,-0.09 -0.02,-0.17 0.03,-0.23 0.04,-0.05 0.11,-0.04 0.18,-0.02 0.06,0.02 0.12,0.04 0.18,0.05 0.09,0.02 0.1,0 0.15,0.08 0.14,0.23 0.13,0.54 0.26,0.72 0.02,0.02 0.03,0.05 0.05,0.06 0.01,0.01 0.02,0.02 0.03,0.03 0.07,0.05 0.17,0.07 0.26,0.08zm-0.14 -0.14c0,0.03 0.01,0.07 0.02,0.09 0.02,0.02 0.07,0.02 0.09,0.02 0.03,-0 0.07,-0.01 0.09,-0.02 0.01,-0.01 0.01,-0.02 0,-0.04 -0,-0.01 -0.01,-0.03 -0.02,-0.04 -0.02,-0.03 -0.08,-0.1 -0.1,-0.12 -0.06,-0.03 -0.1,0.04 -0.09,0.12zm-1.62 0.13c0,-0.03 -0,-0.04 -0.01,-0.06 -0.02,-0.05 -0.05,-0.06 -0.08,-0.01 -0.02,0.03 -0.02,0.1 -0.02,0.14 0,0.05 0.06,0.03 0.08,-0.01 0.01,-0.01 0.02,-0.04 0.02,-0.06zm-0.65 -0.25c-0.02,0 -0.12,0.13 -0.09,0.17 0.01,0.02 0.03,-0.02 0.03,-0.02 0.01,-0.01 0.02,-0.03 0.03,-0.04 0.02,-0.03 0.03,-0.06 0.03,-0.1z"/>
 </g>
</svg>
