<?xml version="1.0" encoding="UTF-8"?>
<!DOCTYPE svg PUBLIC "-//W3C//DTD SVG 1.0//EN" "http://www.w3.org/TR/2001/REC-SVG-20010904/DTD/svg10.dtd">
<!-- Creator: CorelDRAW 2021 (64-Bit) -->
<svg xmlns="http://www.w3.org/2000/svg" xml:space="preserve" width="12.7mm" height="12.7mm" version="1.0" style="shape-rendering:geometricPrecision; text-rendering:geometricPrecision; image-rendering:optimizeQuality; fill-rule:evenodd; clip-rule:evenodd"
viewBox="0 0 3.63 3.63"
 xmlns:xlink="http://www.w3.org/1999/xlink"
 xmlns:xodm="http://www.corel.com/coreldraw/odm/2003">
 <defs>
  <style type="text/css">
   <![CDATA[
    .fil0 {fill:#990000}
    .fil1 {fill:white;fill-rule:nonzero}
   ]]>
  </style>
 </defs>
 <g id="Livello_x0020_1">
  <metadata id="CorelCorpID_0Corel-Layer"/>
  <path class="fil0" d="M0.44 0l2.76 0c0.24,0 0.44,0.2 0.44,0.44l0 2.76c0,0.24 -0.2,0.44 -0.44,0.44l-2.76 0c-0.24,0 -0.44,-0.2 -0.44,-0.44l0 -2.76c0,-0.24 0.2,-0.44 0.44,-0.44z"/>
  <path class="fil1" d="M2.24 1.72l0 -0.43 0.34 0 0.26 0.43 -0.6 0zm0.22 1.06c-0.12,-0 -0.21,-0.1 -0.21,-0.21 0,-0.12 0.1,-0.21 0.21,-0.21 0.12,0 0.21,0.1 0.21,0.21 0,0.12 -0.1,0.21 -0.21,0.21l0 0zm0.75 -1l-0.38 -0.64c-0.05,-0.09 -0.14,-0.14 -0.24,-0.14l-0.34 0 0 -0.28c0,-0.08 -0.06,-0.14 -0.14,-0.14l-1.42 0c-0.16,0 -0.28,0.13 -0.28,0.28l0 1.42c0,0.1 0.05,0.19 0.14,0.25 -0,0.01 -0,0.01 -0,0.02 0,0.27 0.22,0.5 0.5,0.5 0.27,0 0.49,-0.21 0.5,-0.48l0.44 0c0.03,0.25 0.24,0.43 0.49,0.43 0.25,0 0.46,-0.18 0.49,-0.43 0.16,0 0.28,-0.13 0.28,-0.28l0 -0.43c-0,-0.03 -0.01,-0.05 -0.02,-0.07l0 0zm-2.18 1c-0.12,-0 -0.21,-0.1 -0.21,-0.21 0,-0.12 0.1,-0.21 0.21,-0.21 0.12,0 0.21,0.1 0.21,0.21 0,0.12 -0.1,0.21 -0.21,0.21l0 0zm0.21 -1.77l0.27 0 0 0.31 0.31 0 0 0.27 -0.31 0 0 0.31 -0.27 0 0 -0.31 -0.31 0 0 -0.27 0.31 0 0 -0.31z"/>
 </g>
</svg>
