<?xml version="1.0" encoding="UTF-8"?>
<!DOCTYPE svg PUBLIC "-//W3C//DTD SVG 1.0//EN" "http://www.w3.org/TR/2001/REC-SVG-20010904/DTD/svg10.dtd">
<!-- Creator: CorelDRAW 2021 (64-Bit) -->
<svg xmlns="http://www.w3.org/2000/svg" xml:space="preserve" width="12.7mm" height="12.7mm" version="1.0" style="shape-rendering:geometricPrecision; text-rendering:geometricPrecision; image-rendering:optimizeQuality; fill-rule:evenodd; clip-rule:evenodd"
viewBox="0 0 3.69 3.69"
 xmlns:xlink="http://www.w3.org/1999/xlink"
 xmlns:xodm="http://www.corel.com/coreldraw/odm/2003">
 <defs>
  <style type="text/css">
   <![CDATA[
    .fil0 {fill:#990000}
    .fil1 {fill:white}
   ]]>
  </style>
 </defs>
 <g id="Livello_x0020_1">
  <metadata id="CorelCorpID_0Corel-Layer"/>
  <path class="fil0" d="M0.44 0l2.8 0c0.24,0 0.44,0.2 0.44,0.44l0 2.8c0,0.24 -0.2,0.44 -0.44,0.44l-2.8 0c-0.24,0 -0.44,-0.2 -0.44,-0.44l0 -2.8c0,-0.24 0.2,-0.44 0.44,-0.44z"/>
  <g id="_2312438156864">
   <path class="fil1" d="M2.16 1.33c-0,0 -0,0 -0,0.01l-0.01 0.01c-0,0 -0,0 -0,0 -0,0 -0,0 -0,0l-0.01 0.01c-0,0 -0,0 -0,0l-0.05 0.07c-0,0 -0,0 -0,0l-0.02 0.03c-0,0 -0,0 -0,0l-0 0.01c-0,0 -0,0 -0,0 -0,0 -0,0 -0,0l-0 0c-0,0 -0,0 -0,0 -0,0 -0,0 -0,0l-0.01 0.01c-0,0 -0,0 -0,0l-0.01 0.02c-0,0 -0,0 -0,0l-0.01 0.01c-0,0 -0,0 -0,0l-0 0c-0,0 -0,0 -0,0l-0 0c-0,0 -0,0 -0,0l-0.01 0.01c-0,0 -0,0 -0,0l-0.06 0.08c-0,0 -0,0 -0,0l-0.01 0.02c-0,0 -0,0 -0,0l-0 0c-0,0 -0,0 -0,0l-0.01 0.02c-0,0 -0,0 -0,0 -0,0 -0,0 -0,0l-0.04 0.05c-0,0 -0,0 -0,0l-0.01 0.02c-0,0 -0,0 -0,0l-0.01 0.02c-0,0 -0,0 -0,0 -0,0 -0,0 -0,0l-0.01 0.02c-0,0 -0,0 -0,0l-0 0c-0,0 -0,0 -0,0l-0.01 0.01c-0.01,0.01 -0.02,-0 -0.03,-0l-0.01 0c-0.01,0 -0.01,-0 -0.02,-0 -0,0 0,0 -0.01,0 -0.01,-0 -0.01,-0 -0.02,-0l-0.02 -0c-0.01,-0 -0,0 -0.01,0 -0,-0 -0.01,-0 -0.02,-0 -0.01,-0 0,0 -0.01,0l-0.02 -0c-0,0 -0,0 -0,0 -0.01,0 -0.01,-0 -0.03,-0 -0.01,0 -0.01,-0 -0.02,-0 -0.01,-0 -0,0 -0.01,0 -0,-0 -0.01,-0 -0.01,-0 -0.01,-0 0,0 -0.01,0 -0.01,-0 -0.01,-0 -0.02,-0 -0,0 0,0 -0.01,0 -0.01,-0 -0.01,-0 -0.02,-0 -0.01,0 -0.01,-0 -0.02,-0 -0,0 0,0 -0,0l-0.07 -0c-0,0 -0,0 -0,0l-0.01 0c-0,0 -0,0 -0,0l-0.09 0.01c-0,0 -0,0 -0,0l-0.09 0.02c-0,0 -0,0 -0,0l-0.02 0c-0,0 -0,0 -0,0l-0.01 0c-0,0 -0,0 -0,0l-0.01 0c-0,0 -0,0 -0,0 -0,0 -0,0 -0,0l-0.04 0.01c-0,0 -0,0 -0,0 -0,0 -0,0 -0,0l-0.1 0.03c-0,0 -0,0 -0,0l-0.01 0c-0,0 -0,0 -0,0 -0,0 -0,0 -0,0l-0.04 0.01c-0,0 -0,0 -0,0l-0 0c-0,0 -0,0 -0,0l-0 0c-0,0 -0,0 -0,0l-0.12 0.03c-0,0 -0,0 -0,0l-0.02 0.01c-0,0 -0,0 -0,0l-0.01 0c-0,0 -0,0 -0,0l-0.05 0.01c-0,0 -0,0 -0,0 -0,0 -0,0 -0,0l-0.03 0.01c-0,0 -0,0 -0,0l-0.01 0c-0,0 -0,0 -0,0 -0,0 -0,0 -0,0l-0 0c-0,0 -0,0 -0,0 -0,0 -0,0 -0,0l-0.03 0.01c-0,0 -0,0 -0,0 -0,0 -0,0 -0,0l-0.03 0.01c-0,0 -0,0 -0,0 -0,0 -0,0 -0,0l-0.01 0c-0,0 -0,0 -0,0 -0.02,0.01 -0.02,0.01 -0.03,0.03l-0.01 0.01c-0,0 -0,0 -0,0 -0,0 -0,0 -0,0l-0.01 0.01c-0,0 -0,0 -0,0l-0.01 0.02c-0,0.01 -0,0.01 -0.01,0.02 -0,0.01 -0.01,0.02 -0.01,0.03l-0 0.01c-0,0.01 0,0 0,0.01 0,0 0,0 -0,0.01l0.01 0.04c0,0 0,0 0,0l0.01 0.02c0,0.01 0.01,0.02 0.02,0.04 0,0 0,0 0,0l0.03 0.03c0,0 0,0 0,0l0.02 0.01c0,0 0,0 0.01,0 0,0 0,0 0,0l0 0c0.01,0 0.03,0.01 0.04,0.01l0.01 0c0.01,0 -0,0 0,0 0,0 0,-0 0,-0 0,-0 0,-0 0,-0 0,-0 0,-0 0,-0l0 -0c0,-0 0,-0 0,-0l0.01 -0c0,-0 0,-0 0.01,-0 0,-0 0,-0 0,-0 0,-0 0,-0 0,-0 0,-0 0,-0 0,-0l0.04 -0.01c0,-0 0,-0 0,-0l0 -0c0,-0 0,-0 0,-0l0.05 -0.01c0,-0 0,-0 0,-0l0.02 -0c0,-0 0,-0 0,-0 0,-0 0,-0 0,-0 0,-0 0,-0 0,-0 0,-0 0,-0 0,-0l0.06 -0.02c0,-0 0,-0 0,-0l0.02 -0.01c0,-0 0,-0 0,-0l0.04 -0.01c0,-0 0,-0 0,-0l0.02 -0.01c0,-0 0,-0 0,-0l0.07 -0.02c0,-0 0,-0 0,-0l0.05 -0.01c0,-0 0,-0 0,-0 0,-0 0,-0 0,-0 0,-0 0,-0 0,-0l0.07 -0.02c0,-0 0,-0 0,-0l0.05 -0.01c0,-0 0,-0 0,-0l0.04 -0.01c0,-0 0,-0 0,-0 0,-0 0,-0 0,-0l0.05 -0.01c0,-0 0,-0 0,-0 0,-0 0,-0 0,-0l0.1 -0.01c0,-0 0,-0 0,-0 0,-0 0,-0 0,-0 0,-0 0,-0 0,-0 0,-0 0,-0 0,-0l0.05 0c0.01,-0 0.01,0 0.02,0 0.01,0 -0,-0 0.01,-0 0,0 0.01,0 0.01,0 0.01,0 -0,-0 0.01,-0 0.01,0 0.02,0 0.03,0l0.03 0c0.01,0 -0,-0 0.01,-0 0,0 0.01,0 0.02,0 0,0 0,-0 0,-0 0,-0 0,-0 0,-0 0,-0 0,-0 0,-0 0.01,-0 0.01,0 0.02,0 0.01,-0 0.01,0 0.02,0 0.01,0 -0,-0 0.01,-0l-0.01 0.01c-0,0 -0,0 -0,0l-0.02 0.02c-0,0 -0,0 -0,0l-0.02 0.01c-0,0 0,-0 -0,0l-0.02 0.02c-0,0 -0,0 -0,0l-0.01 0.01c-0,0 -0,0 -0,0l-0.01 0c-0,0 -0,0 -0,0 -0,0 -0,0 -0,0 -0,0 -0,0 -0,0 -0.01,0.01 -0.01,0.01 -0.02,0.02l-0.03 0.03c-0,0 -0,0 -0,0l-0.03 0.03c-0,0 -0,0 -0,0l-0.02 0.01c-0,0 -0,0 -0,0l-0.01 0.01c-0,0 -0,0 -0,0l-0.04 0.04c-0,0 -0,0 -0,0l-0.01 0.01c-0,0 -0,0 -0,0 -0,0 -0,0 -0,0l-0.02 0.03c-0,0 -0,0 -0,0l-0.01 0.01c-0,0 -0,0 -0,0l-0.01 0.01c-0,0 -0,0 -0,0l-0 0.01c-0,0 -0,0 -0,0l-0.01 0.02c-0,0 -0,0 -0,0l-0 0.01c-0,0 -0,0 -0,0 -0,0 -0,0 -0,0 -0,0 -0,0 -0,0 -0,0 -0,0 -0,0l-0 0.01c-0,0 -0,0 -0,0 -0,0 -0,0 -0,0 -0,0.01 -0,0.01 -0,0.01l-0.01 0.01c-0,0 -0,0.01 -0,0.01 -0,0.01 -0,-0 -0.01,0.03 -0.01,0.04 -0.07,0.32 -0.07,0.33l-0 0.02c-0,0.02 -0.04,0.16 -0.04,0.17 -0,0.01 0,0.01 0,0.01 -0,0 -0,0 -0,0.01l0 0c0,0 0,0 0,0 0,0 0,0 0,0l0 0.01c0,0 0,0 0,0l0 0.01c0,0 0,0 0,0l0.01 0.03c0,0 0,0 0,0l0.01 0.02c0,0 0,0 0,0l0.01 0.02c0,0 0,0 0,0 0,0 0.01,0.01 0.01,0.01l0 0c0,0 0,0 0,0l0.01 0.01c0,0 0,0 0,0l0.02 0.01c0.02,0.01 0,0 0.04,0.01 0.02,0 0.02,0 0.03,0l0.01 0c0,-0 0,-0 0,-0 0,-0 0,-0 0,-0l0.05 -0.01c0,-0 0,-0 0,-0 0,-0 0,0 0.01,-0 0.01,-0 0.02,-0.01 0.03,-0.02 0,-0 0,-0 0,-0l0.03 -0.03c0,-0 0,-0 0,-0l0.02 -0.04c0,-0 0,-0 0,-0.01l0 -0.01c0,-0 0.03,-0.13 0.03,-0.14 -0,-0.01 0,-0.03 0.01,-0.04 0.02,-0.12 0.05,-0.23 0.07,-0.35l0.02 -0.03c0,-0 0,-0 0,-0l0.02 -0.02c0,-0 0,-0 0,-0 0,-0 0,-0 0,-0l0.02 -0.02c0,-0 0,-0 0,-0 0,-0 0,-0 0,-0l0.06 -0.06c0,-0 0,-0 0,-0l0 -0c0,-0 0,-0 0,-0l0.02 -0.02c0,-0 0,-0 0,-0l0.03 -0.02c0,-0 0,-0 0,-0l0 -0c0,-0 0,-0 0,-0 0,-0 0,-0 0,-0l0.01 -0.01c0,-0 0,-0 0,-0l0.03 -0.02c0.01,-0.01 0.02,-0.02 0.03,-0.02l0.01 -0.01c0,-0 0,-0 0,-0 0,-0 0,-0 0,-0l0.03 -0.03c0,-0 0,-0 0,-0l0.01 -0.01c0,-0 0,-0 0,-0l0.04 -0.04c0,-0 0,-0 0,-0l0.01 -0.01c0,-0 0,-0 0,-0l0.03 -0.03c0,-0 0,-0 0,-0l0.04 -0.03c0,-0 0,-0 0,-0l0.01 -0c0,-0 0,-0 0,-0l0.02 -0.02c0,-0 0,-0 0,-0 0,-0 0,-0 0,-0l0.04 -0.04c0,-0 0,-0 0,-0l0.02 -0.02c0,-0 0,-0 0,-0l0 -0c0,-0 0,-0 0,-0 0,-0 0,-0 0,-0l0.01 -0.01c0,-0 0,-0 0,-0 0,-0 0,-0 0,-0 0,-0 0,-0 0,-0 0,-0 0,-0 0,-0l0.15 -0.17c0,-0 0,-0 0,-0 0,-0 0,-0 0,-0l0.03 -0.03c0,-0 0,-0 0,-0l0.01 -0.01c0,-0 0,-0 0,-0 0,-0 0,-0 0,-0l0.01 -0.01c0,-0 0,-0 0,-0l0.01 -0.02c0,-0 0,-0 0,-0l0.03 -0.03c0,-0 0,-0 0,-0l0.01 -0.01c0,-0 0,-0 0,-0 0,-0 0,-0 0,-0 0,-0 0,-0 0,-0l0 -0c0,-0 0,-0 0,-0l0.05 -0.06c0,-0 0,-0 0,-0 0,-0 0,-0 0.01,-0.01l0 0c-0,0.01 0,0.01 0,0.01l0.03 0.09c0,0 0,0 0,0 0,0 0,0 0,0l0.02 0.08c0,0 0,0 0,0l0 0.01c0,0 0,0 0,0l-0 0.02c-0,0 -0,0.01 -0,0.01l-0.07 0.34c-0,0.01 -0,0.02 -0,0.03l0 0.02c0,0 0,0 0,0l0.03 0.05c0,0 0,0 0,0 0,0.01 0.01,0.01 0.01,0.01l0.05 0.03c0.01,0 0.03,0.01 0.03,0.01l0.03 -0c0.01,-0 0.01,-0 0.02,-0.01l0.01 -0c0.01,-0 0.02,-0.01 0.03,-0.02 0,-0 0,-0 0,-0l0.02 -0.02c0.01,-0.01 0.01,-0.02 0.01,-0.02 0,-0 0,-0 0,-0 0.01,-0.01 0.05,-0.2 0.05,-0.22 0,-0.02 0.04,-0.18 0.04,-0.19l-0 -0c-0,-0.01 0,-0.01 0,-0.02l-0 -0.02c0,-0 -0,-0 -0,-0 -0,-0 0,-0 0,-0.01l-0 -0.01c-0,-0 -0,-0 -0,-0l-0 -0.02c-0,-0 -0,-0 -0,-0l-0 -0.01c-0,-0 0,-0 -0,-0.01l-0.01 -0.03c-0,-0 -0,-0 -0,-0l-0.01 -0.04c-0,-0 -0,-0 -0,-0l-0.01 -0.02c-0,-0 -0,-0 -0,-0l-0 -0.01c-0,-0 -0,-0 -0,-0l-0.01 -0.03c-0,-0 -0,-0 -0,-0l-0.01 -0.03c-0,-0 -0,-0 -0,-0l-0 -0.01c-0,-0 -0,-0 -0,-0l-0.05 -0.15c-0,-0 -0,-0 -0,-0 -0,-0 -0,-0 -0,-0 -0,-0 -0,-0 -0,-0l-0.01 -0.04c-0,-0 -0,-0 -0,-0l-0.01 -0.04c-0,-0 -0,-0 -0,-0l-0.02 -0.04c-0,-0 -0,-0 -0,-0 -0,-0 -0,-0 -0,-0l-0.02 -0.04c-0,-0 -0,-0 -0,-0.01l-0.03 -0.05c-0,-0 -0,-0 -0,-0 -0,-0 -0,-0 -0,-0 -0,-0 -0,-0 -0,-0 -0,-0 -0,-0 -0,-0 -0,-0 -0,-0 -0,-0l-0.01 -0.02c-0,-0 -0,-0 -0,-0l-0.09 -0.1c-0,-0 -0,-0 -0,-0l-0.01 -0.01c-0,-0 -0,-0 -0,-0 -0,-0 -0,-0 -0,-0l-0.01 -0.01c-0,-0 -0,-0 -0,-0 -0,-0 -0,-0 -0,-0 -0,-0 -0,-0 -0,-0l-0.05 -0.05c-0.02,-0.01 -0.04,-0.02 -0.05,-0.02 -0.01,-0.01 -0.03,-0 -0.04,-0.01 -0,-0 0,-0 -0,-0 -0.01,-0 -0.13,-0.03 -0.14,-0.03 -0.01,-0 -0.01,-0 -0.02,-0 -0,0 0,0 -0.01,0 -0,-0 -0.01,-0 -0.01,-0 -0.01,-0 -0.06,-0.02 -0.07,-0.02l-0.01 0c-0.02,-0 -0.05,-0.01 -0.06,-0.01l-0.02 -0c-0.01,-0 -0.04,-0.01 -0.05,-0.01 -0,0 -0.01,0 -0.01,-0 -0.01,-0 -0.01,-0.01 -0.02,-0.01l-0.02 -0.01c-0,-0 -0,-0 -0,-0l-0.01 -0.01c-0,-0 -0,-0 -0,-0l-0.01 -0.05c-0,-0 -0,-0 -0,-0l-0.01 -0.02c-0,-0 0,0 -0,-0l-0.03 -0.11c-0,-0 -0,-0 -0,-0l-0.02 -0.06c-0,-0 -0,-0 -0,-0l-0 -0c-0,-0 -0,-0 -0,-0l-0 -0c-0,-0 -0,-0 -0,-0l-0 -0.02c-0,-0.01 -0,-0.01 -0.01,-0.02 -0,-0 -0,-0 -0,-0l-0 -0.01c-0,-0 -0,-0 -0,-0l-0.06 -0.06c-0.01,-0 -0.03,-0.01 -0.04,-0.01 -0.01,0 -0,0 -0.01,0 -0.01,0 -0,-0 -0.01,-0 -0.01,-0 -0.01,0 -0.02,0 -0,0 -0,0 -0,0 -0,0 -0,0 -0,0l-0.02 0c-0,0 -0,0 -0,0l-0.06 0.03c-0,0 -0,0 -0,0 -0,0 -0,0 -0,0l-0.03 0.04c-0,0 -0,0.01 -0,0.01 -0,0.01 -0,-0 -0,0.01l-0 0.02c-0,0 -0,0 -0,0l0 0.01c-0,0 -0,0 -0,0l0.02 0.07c0,0 0,0 0,0l0 0.02c0,0 0,0 0,0l0.01 0.03c0,0 0,0 0,0l0.01 0.03c0,0 0,0 0,0l0.01 0.06c0,0 0,0 0,0l0.05 0.16c0,0.01 0.01,0.02 0.01,0.03 0,0 0,0 0,0l0.01 0.01c0.01,0.01 0.01,0.01 0.02,0.02l0.03 0.03c0,0 0,0 0,0 0,0 0,0 0,0l0.05 0.04c0,0 0,0 0.01,0l0.09 0.04c0.01,0.01 0.08,0.02 0.09,0.02 0.02,-0 0.02,0 0.04,0.01 0.01,0 0.01,0 0.02,0 0.01,0 0.01,-0 0.02,0 0.02,0 0.04,0.01 0.06,0.01 0.01,-0 0.02,0 0.03,0z"/>
   <path class="fil1" d="M2.89 0.67c-0,0 -0.01,-0 -0.02,-0 -0.01,-0 -0.01,0 -0.02,0 -0,-0 -0,-0 -0.01,-0 -0,-0 -0,0 -0,0 -0,0 -0,0 -0,0l-0.01 0c-0,0 -0,0 -0,0 -0,0 -0,0 -0,0 -0,0 -0,0 -0,0l-0.05 0.01c-0,0 -0,0 -0,0 -0,0 -0,0 -0,0l-0.01 0c-0,0 -0,0 -0,0l-0.07 0.03c-0,0 -0,0 -0,0 -0.01,0 -0.02,0.01 -0.02,0.01l-0.07 0.08c-0,0 -0,0 -0,0 -0,0 -0,0 -0,0l-0.03 0.05c-0,0 -0,-0 -0,0 -0,0 -0,0.01 -0,0.01 -0,0.01 -0,-0 -0.01,0.01l-0.01 0.07c-0,0.01 0,0.01 0,0.02l-0 0.01c0,0 0,0 0,0 0,0 0,0 0,0l0 0.02c0,0 0,0 0,0l0 0.03c0,0 0,0 0,0l0.02 0.07c0,0.01 0.01,0.01 0.01,0.02l0 0c0,0.01 0.01,0.02 0.01,0.02 0,0 0,0 0,0l0.03 0.03c0,0 0,0 0,0l0.05 0.04c0,0 0,0 0,0l0.01 0.01c0,0 0,0 0,0 0,0 0,0 0,0 0.01,0.01 0.03,0.01 0.03,0.01l0.01 0c0.01,0 0.01,0 0.02,0.01 0.01,0 0.05,0.01 0.06,0.01 0.01,0 0,-0 0.02,-0l0.11 -0.01c0,-0 0,-0 0,-0l0.03 -0.01c0.01,-0 0.01,-0.01 0.02,-0.01 0,-0 0,-0 0,-0l0 -0c0.01,-0 0.02,-0.01 0.03,-0.02l0.01 -0c0.01,-0 0.01,-0.01 0.01,-0.01l0.01 -0c0,-0 0,-0 0,-0 0,-0 0,-0 0,-0 0,-0 0,-0 0.01,-0 0,-0 0,-0 0,-0 0,-0 0,-0 0,-0l0.01 -0.01c0,-0 0,-0 0,-0l0.01 -0.02c0,-0 0,-0 0,-0l0 -0.01c0,-0 0,-0 0,-0 0,-0 0,-0 0,-0l0.01 -0.02c0,-0 0,-0 0,-0 0,-0 0,-0 0,-0l0.01 -0.01c0,-0 0,-0 0,-0l0.01 -0.01c0,-0 0,-0.01 0,-0.01 0,-0.01 0,0 0,-0.01l0.01 -0.02c0,-0.01 0,-0.01 0,-0.02 0,-0.01 0.01,-0.04 0.01,-0.06l-0.01 -0.07c-0,-0 -0,-0 -0,-0 -0,-0 -0,-0 -0,-0 -0,-0 -0,0 -0,-0l-0.02 -0.05c-0,-0 -0,-0 -0,-0l-0 -0.01c-0,-0 -0,-0 -0,-0 -0,-0 -0,-0 -0,-0l-0.01 -0.01c-0,-0 -0,-0 -0,-0.01l-0 -0c-0,-0 -0,-0 -0,-0l-0 -0c-0,-0.01 -0.01,-0.01 -0.01,-0.02l-0 -0.01c-0,-0 -0,-0 -0,-0l-0.06 -0.07c-0,-0 -0,-0 -0,-0l-0.06 -0.03c-0.01,-0 -0.01,-0 -0.02,-0.01 -0,-0 -0.01,-0 -0.02,-0.01 -0.01,-0 -0.03,-0.01 -0.04,-0.01z"/>
   <path class="fil1" d="M0.35 2.09l-0 0.02c0,0 0,0 0,0.01l0 0.04c0,0 0,0 0,0l0 0.03c0,0.01 -0,-0 0,0 0,0 0,0 0,0l0.01 0.04c0,0.01 0.01,0.02 0.01,0.02 0,0 0,0 0,0 0,0 0.01,0.01 0.01,0.01 0.01,0 0.01,-0 0.01,-0 0.01,-0 0.01,-0 0.01,-0.01 0,-0 -0,-0 0.01,-0l0.01 -0.03c-0.01,-0 -0.01,-0.01 -0.01,-0.01l-0 -0.01c-0,-0 -0,-0 -0,-0l-0.01 -0.06c-0,-0 -0,-0 -0,-0l-0 -0.03c-0,-0 -0,-0 -0,-0 -0,-0 -0,-0 -0,-0.01l-0 -0c-0,-0 -0,-0 -0,-0 -0,-0.01 -0.01,-0.02 -0.02,-0.02l-0.01 0c-0,0 -0,0 -0,0 -0.01,0 -0.01,0.01 -0.02,0.01z"/>
   <path class="fil1" d="M2.36 0.89c-0.03,-0.01 -0.04,-0.01 -0.06,0l-0.01 0.01c-0,0 -0,0.01 -0,0.01 -0,0.01 -0,0 0,0.01 0.01,0.03 0.03,0.03 0.06,0.03 0.02,0 0.04,0.01 0.05,-0.01 0,-0 0,0 0,-0 0,-0 0,-0 0,-0.01 0,-0 0,-0.01 0,-0.01 0,-0 0,-0.01 0,-0.01 -0,-0.02 -0,-0.01 0,-0.03 0,-0 0,-0.01 0,-0.01 0,-0 0,-0 0,-0l-0 -0c-0,-0.01 -0.01,-0.01 -0.01,-0.02l-0.02 -0c-0,0.01 -0.02,0.01 -0.02,0.02 -0,0.01 -0.01,0.03 -0.01,0.04z"/>
   <path class="fil1" d="M1.11 1.68l0.01 0c0,-0 0.01,-0 0.02,-0l0.11 -0.02c0.01,-0 0.01,-0 0.02,-0.01 0,-0 0,-0 0,-0l0 -0.02 -0.01 -0.02 -0.02 -0c-0,0 -0,0 -0.01,0l-0.04 0.01c-0,0 -0,0 -0,0l-0.01 0c-0,0 -0,0 -0,0l-0 0c-0,0 -0,0 -0,0 -0,0 -0,0 -0,0l-0.01 0c-0,0 -0,0 -0,0 -0,0 -0,0 -0,0 -0,0 -0,0 -0,0l-0 0c-0,0 -0,0 -0,0l-0.05 0.01c-0,0 0,-0 -0,0l-0 0c-0,0.01 -0.01,0.02 -0,0.02 0,0 0,0 0,0l0.01 0.01c0.01,0 0.01,-0 0.01,0.01z"/>
   <path class="fil1" d="M1.16 2.64l0.02 0 0.01 -0.01c0,-0 0,-0 0,-0l0 -0.02c0,-0 0,0 0,-0l0.02 -0.07c0,-0.01 0,-0.01 0.01,-0.02 0,-0 0,-0.01 0,-0.01l0.01 -0.04c0,-0.01 -0,-0.02 -0.01,-0.03 -0,-0 -0.01,-0 -0.01,-0l-0.02 0.02c-0,0 -0,0 -0,0 -0,0 -0,0 -0.01,0.01 -0,0.02 -0,0.03 -0.01,0.05 -0,0 -0,0.01 -0,0.01 -0,0.01 -0.01,0.06 -0.01,0.07l0.01 0.02c0,0 0,0 0,0 0,0.01 0,-0 0,0.01z"/>
   <path class="fil1" d="M2.45 2.59l0.01 0c0,0 0,0 0.01,0.01 0,0 0,0 0,0l0 0c0.01,0.01 0,0 0.01,0.01l0.01 0.01c0,0 -0,0 0,0 0,0 0,0 0,0l0.03 0.02c0,0 0,0 0,0l0.02 0.01c0.01,0 0,-0 0.01,0l0.04 0.01c0,-0 0.01,-0.01 0.02,-0.01l0.01 -0.03c-0.01,-0 -0,-0.01 -0.01,-0.01l-0.01 -0c-0.01,-0.01 -0.02,-0 -0.03,-0.01 -0.01,-0.01 -0.01,-0 -0.02,-0.01l-0.01 -0c-0,-0 -0,-0 -0,-0l-0.01 -0.01c-0,-0 -0,-0 -0,-0l-0.01 -0.01c-0,-0 -0,-0 -0,-0l-0.03 -0.02c-0.01,-0 -0.01,-0.01 -0.01,-0.01 -0.01,-0 -0.02,0 -0.03,0.01l-0 0.01c-0,0.01 0,0.01 0,0.02z"/>
   <path class="fil1" d="M0.7 2.43l-0 0.02c0.01,0 0,0.01 0.01,0.02 0.01,0.01 0,-0 0,0.01l0.01 0c0,-0 -0,-0 0,-0l0.01 -0c0,-0 0,0 0,0l0.03 -0c0,-0 0,-0 0,-0l0.02 -0c0,-0 0,-0 0,-0l0.01 -0c0,-0 0,-0 0,-0l0.02 -0c0,-0 0,-0 0,-0l0.01 -0c0,-0 0,-0 0,-0l0.04 -0.01 0.02 -0.01c0.01,-0.01 -0,-0.02 0,-0.03l-0.01 -0.01 -0.02 -0c-0,0 -0,0 -0.01,0l-0.01 0c-0,0 -0,0 -0,0 -0,0 -0,0 -0,0l-0.11 0.02c-0,0 -0.01,0 -0.01,0 -0,0 -0,0 -0,0 -0,0 -0,0 -0,0z"/>
   <path class="fil1" d="M1.13 3.27l-0 0.02c0,0 0.01,0.01 0.01,0.01l0.03 0.03c0,0 0,0 0,0 0,0 0,0 0,0l0.02 0.02c0,0 -0,0 0,0l0.05 0.04c0,0 0.01,0.01 0.02,0.01 0,0 0,-0 0,-0 0.01,-0 0.01,-0.01 0.02,-0.01l0.01 -0.03c-0.01,-0 -0,-0 -0,-0.01 -0,-0.01 -0.01,-0.01 -0.02,-0.02l-0.01 -0c-0,-0 -0,-0 -0,-0l-0.01 -0.01c-0,-0 -0,-0 -0,-0 -0,-0 -0,-0 -0,-0l-0 -0c-0.01,-0.01 -0.02,-0.01 -0.03,-0.02l-0 -0c-0,-0 -0,-0 -0,-0l-0.01 -0.01c-0,-0 -0,-0 -0,-0l-0.01 -0.02c-0,-0 -0,-0 -0,-0l-0.01 -0.01c-0.01,-0.01 -0.02,-0.01 -0.02,-0l-0 0c-0,0 -0,0 -0,0 -0.01,0.01 0,0 -0.01,0z"/>
   <path class="fil1" d="M1.71 1.61c-0,-0 -0.01,-0 -0.01,-0 -0.01,-0 0,0 -0.01,0 -0,-0 -0.01,-0 -0.01,-0 -0.01,-0 0,0 -0.01,0 -0.01,-0 -0.01,-0 -0.01,-0 -0,0 -0,0 -0,0 -0,0 -0,0 -0,0 -0.01,0 -0.01,0 -0.01,0.01 -0,0 -0,0 -0,0l-0 0c-0,0 -0,0.01 -0,0.01 -0,0.01 -0,-0 0,0l0 0.01c0,0 0,0 0,0l0.01 0.01c0.01,0.01 0.01,0.01 0.02,0.01 0.01,0 0.01,-0 0.01,-0 0.01,-0 0.02,0 0.03,0 0.01,0 0,-0 0.02,0l0.02 -0.01c0,-0 0,-0 0,-0 0.01,-0.01 0.01,-0.01 0.01,-0.02l0.01 -0.02c0,-0 0,-0 0,-0 0,-0.01 0.01,-0.01 0.01,-0.02 0,-0 0,-0 0,-0l0 -0.01c0,-0.02 -0.01,-0.02 -0.01,-0.03l-0.02 -0c-0,0 -0,0 -0,0l-0.02 0.01c-0,0 -0,0 -0,0l-0.01 0.01c-0,0 -0,0 -0,0l-0 0c-0,0 -0,0 -0,0l-0.01 0.02z"/>
   <path class="fil1" d="M2.03 2.46c-0,0.01 -0,0 -0.01,0.01l-0.05 0.05c-0,0 -0,0 -0,0l-0.03 0.03c-0,0 -0,0 -0,0l-0.01 0.01c-0,0 -0,0.01 -0.01,0.01l-0 0.01c0.01,0 -0,0.01 0,0.01 0,0 0,0 0,0l0.01 0.01c0.01,0.01 0.02,0.01 0.03,-0l0.01 -0.01c0,-0 0,-0 0,-0l0.05 -0.05c0,-0 0,-0 0,-0 0,-0 0,-0 0,-0l0.02 -0.02c0.01,-0.01 0.02,-0.02 0.02,-0.03 0,-0.01 -0,-0.01 -0,-0.02 -0.01,-0 -0,-0 -0.01,-0.01 -0.01,-0.01 -0.02,-0 -0.03,-0z"/>
   <path class="fil1" d="M1.4 3.4l-0.02 -0 -0.02 0.01 -0 0.02c0,0 0,0.01 0.01,0.02 0,0 0,0 0,0 0,0 0,0 0,0 0,0 0.01,0 0.01,0l0 -0c0.01,-0 0.01,0 0.02,0l0 -0c0,-0 0,-0 0,-0l0.03 -0c0,-0 0,-0 0,-0l0.02 -0c0,-0 0,-0 0,-0l0 -0c0,-0 0,-0 0.01,-0l0.02 -0c0,-0 0,-0 0,-0l0.03 -0.01c0,-0 0,-0 0,-0l0.02 -0.01c0.01,-0 0.01,-0.01 0.01,-0.01l0 -0.02c-0,-0 -0,-0 -0,-0 -0,-0 -0,-0 -0,-0l-0.01 -0.01c-0,-0 -0.01,-0 -0.01,-0 -0,0 -0,0 -0.01,0l-0.06 0.02c-0,0 -0,0 -0,0l-0.01 0c-0,0 -0,0 -0.01,-0 -0,-0 -0,-0 -0.01,0l-0.03 -0c-0,-0 -0.01,-0 -0.01,-0 -0,0 -0,-0 -0,0z"/>
   <path class="fil1" d="M2.13 2.37l-0 0.02c0,0 0,0 0.01,0.01l0.01 0.01c0,0 0.01,0 0.01,0 0,-0 0,-0 0,-0l0 -0c0,-0 0,-0 0,-0l0.02 -0.02c0,-0 0,-0 0,-0 0,-0 0,-0 0,-0l0.01 -0.01c0,-0 0,-0 0,-0l0.01 -0.01c0,-0 0,-0 0,-0l0.02 -0.02c0,-0 0,-0 0,-0l0.02 -0.02c0,-0 0,-0 0,-0l0.01 -0.01c0,-0 0.01,-0 0.01,-0.01l0.01 -0.01c0,-0 0,-0 0,-0 0,-0 0,0 0,-0 0,-0.01 0,-0 -0,-0.01l-0.01 -0.02c-0,-0 -0,-0 -0,-0l-0 -0c-0,-0 0,-0 -0,-0l-0.01 -0 -0.01 0.01c-0,0 -0,0 -0,0l-0.01 0.01c-0,0 -0,0 -0,0 -0,0 -0,0 -0,0 -0,0 -0,0 -0,0l-0.03 0.03c-0,0 -0,0 -0,0l-0.05 0.05c-0,0 -0,0 -0,0 -0,0 -0.01,0.01 -0.01,0.01z"/>
   <path class="fil1" d="M1.37 1.64l0.01 0c0,-0.01 -0,-0 0.01,-0l0.03 -0c0.01,-0 0.01,0 0.01,0 0.01,0 0,-0 0.01,-0l0.04 0c0.01,0 -0,-0 0.01,-0 0.01,0 0.01,0 0.02,0l0.01 -0c0.01,-0 0.01,-0 0.01,-0 0,-0 -0,-0 0,-0 0,-0 0,-0 0,-0l0 -0.02c-0.01,-0 0,0 -0,-0.01l-0 -0.01c-0,-0 -0,-0 -0,-0l-0.01 -0c-0.01,-0 -0.03,-0 -0.04,-0 -0,-0 -0.01,-0 -0.01,-0l-0 0c-0.01,0 -0.02,-0 -0.03,0 -0.01,0 -0.01,-0 -0.03,0 -0,0 -0,0 -0,0l-0.02 0c-0,0 -0,0 -0,0l-0.02 0c-0,0 -0,0 -0,0l-0.01 0.01c-0,0 -0,0 -0,0 -0,0 -0.01,0.01 -0,0.02l0 0.01c0,0 0,0 0,0.01 0,0 0,0 0,0.01z"/>
   <path class="fil1" d="M1.63 3.35l0.02 0c0,-0.01 0,-0 0.01,-0 0.01,-0 0.01,-0.01 0.01,-0.01l0.04 -0.04c0,-0 0,-0 0,-0 0,-0 0,-0 0,-0 0,-0 0,-0 0,-0 0,-0 0,0 0,-0l0 -0.01c0,-0 0,-0 0,-0l0.01 -0.02c0,-0 0,-0 0,-0l0 -0c0,-0 0,-0 0,-0l0.02 -0.05c-0,-0 -0,-0 -0,-0 -0,-0 -0,-0 -0,-0 -0,-0.01 -0.02,-0.01 -0.03,-0.01 -0,0 -0,0 -0,0 -0.01,0 -0.01,0 -0.01,0.01l-0.01 0.02c-0,0 -0,0 -0,0 -0,0 -0,0 -0,0l-0.01 0.01c-0,0 -0,0 -0,0l-0.01 0.02c-0,0 -0,0 -0,0l-0.01 0.02c-0,0 -0,0 -0,0l-0.03 0.03c-0.01,0.02 0,0.02 0.01,0.04z"/>
   <path class="fil1" d="M1.79 1.39l-0.01 0.01 -0 0.02c0.01,0 0,0.01 0.01,0.02 0,0 0,0 0,0 0,0 0,0 0,0l0 0c0,0 0,0 0,0 0.01,0.01 0.01,0 0.02,0.01 0,0 0,0 0.01,0l-0 0.01c-0,0 -0,-0 -0,0 -0,0 -0,0 -0,0l-0.01 0.01c-0.01,0.01 -0.01,0.02 -0,0.04l0.02 0.01 0.01 -0c0,-0 0,-0 0,-0 0,-0 0,-0 0,-0l0 -0c0,-0 0,-0 0,-0 0,-0 0,-0 0,-0l0.01 -0.01c0,-0 0,-0 0,-0l0.01 -0.01c0,-0 0,-0 0,-0l0.01 -0.01c0,-0 0,-0 0,-0l0 -0c0,-0 0,-0 0,-0l0.01 -0.02c0,-0 0,-0 0,-0 0,-0 0,-0 0,-0 0.01,-0.01 0,-0.02 0,-0.03 -0.01,-0 -0.01,-0.01 -0.02,-0.01l-0.01 -0c-0,-0 -0.01,-0 -0.02,-0 -0,-0 -0.01,-0 -0.01,-0 -0,-0 -0,-0 -0,-0l-0.01 -0.01c-0,-0 -0,-0 -0,-0l-0.01 -0.01c-0,-0 0,-0 -0.01,-0 -0.01,-0 -0.01,0 -0.02,0z"/>
   <path class="fil1" d="M2.86 2.61l0 -0.02 -0.01 -0.02 -0.02 -0c-0,0 -0,0 -0,0 -0,0 -0,0 -0,0l-0 0c-0.01,0 -0.01,0 -0.02,0.01l-0.02 0.01c-0,0 -0,0 -0,0l-0.07 0.02c-0,0 -0,0 -0,0l-0 0.01c-0,0 -0,0 -0,0l-0 0c-0,0 -0,0 -0,0.01l0 0c0,0 0,0 0,0l0 0.01c0,0.01 0.01,0.02 0.02,0.01 0,-0 0,-0 0,-0l0.02 -0c0,-0 0,-0 0,-0 0,-0 0,-0 0,-0 0,-0 0,-0 0,-0 0,-0 0,-0 0,-0l0.04 -0.01c0.01,-0 0.01,-0.01 0.02,-0.01 0,-0 0,-0 0,-0 0.01,-0 0.01,-0.01 0.02,-0.01 0,-0 0,-0 0,-0 0.01,-0 0.02,-0.01 0.03,-0.02 0.01,-0 -0,-0 0.01,-0z"/>
   <path class="fil1" d="M2.38 2.49l0.02 0c0,-0.01 0.01,-0.01 0.01,-0.01l0.01 -0.01c0,-0 0,-0 0,-0.01 0,-0 -0,-0 -0,-0l-0.01 -0.03c-0,-0 -0,-0 -0,-0.01l-0 -0c-0,-0 -0,-0 -0,-0l-0 -0.02c-0,-0 -0,-0 -0,-0 -0,-0 -0,-0 -0,-0l-0 -0.01c-0,-0 -0,-0 -0,-0l-0 -0.02c-0,-0 -0,-0 -0,-0 -0,-0 -0,-0 -0,-0 -0,-0 -0,-0 -0,-0 -0,-0 -0,-0 -0,-0l-0 -0c-0,-0 -0,-0 -0,-0l-0 -0.01c-0,-0 -0,-0 -0,-0l-0 -0.01c-0,-0 -0,-0 -0,-0l-0 -0.01c-0,-0 -0,-0.01 -0.01,-0.01l-0.02 -0c-0,0 -0.01,0 -0.01,0l-0.01 0c-0,0 -0,0 -0,0 -0,0 -0,0 -0,0l-0 0c-0,0 -0,0 -0,0 -0,0 -0,0 -0,0 -0,0 -0,0.01 -0,0.01l0 0c0,0 0,0 0,0 0,0 -0,0 -0,0.01l0 0.04c0,0 0,0 0,0.01 0,0 0,0 0,0l0.03 0.08c0,0 0,0 0,0l0 0c0,0 0,-0 0,0z"/>
   <path class="fil1" d="M1.77 0.41l-0 0.02c0,0 0,0 0,0 0.01,0.02 0.01,0 0.03,0.02 0,0 0,0 0.01,0 0,0 0.01,0 0.01,0l0.03 0.01c0.01,0 0.01,0.01 0.02,0.01l0.04 0.02c0,0 0,-0 0,-0l0.01 -0c0.01,-0 0,-0 0.01,-0 0.01,-0.01 0,-0.01 0.01,-0.01l0 -0.02c0,0 -0,-0 -0,-0.01 -0,-0 -0,-0 -0,-0 -0,-0 -0,-0 0,-0 -0.01,-0 0,-0 -0.01,-0.01l-0.02 -0.01c-0,-0 -0,-0 -0,-0 -0.01,-0.01 -0,-0 -0.02,-0.01l-0 -0c-0,-0 -0,-0 -0,-0 -0,-0 -0,-0 -0.01,-0 -0,-0 -0,-0 -0,-0l-0 -0c-0,-0 -0,-0 -0,-0l-0.02 -0.01c-0.01,-0.01 -0.01,-0 -0.02,-0.01 -0,-0 -0.01,-0.01 -0.03,-0.01 -0,0 -0,0 -0,0l-0.01 0.01c-0,0 -0,0 -0,0 -0,0.01 0,0 -0,0z"/>
   <path class="fil1" d="M2.04 0.79l-0 0.02c0,0 0.01,0.01 0.01,0.02 0,0 0,0 0,0 0,0 0,0 0,0l0 0.01c0,0 0,0 0,0l0 0.01c0,0.01 0.01,0.02 0.01,0.02l0.01 0.01c0.01,0 0.03,0.01 0.04,0.01 0.01,-0 0.02,0 0.03,0.01 0,0 0,-0 0.01,-0l0.01 -0c0,-0 0,-0 0,-0l0.01 -0c0,-0 0,-0 0,-0l0.01 -0.01c0,-0 0,-0 0,-0 0,-0 0,-0 0,-0l-0 -0.01c-0,-0 -0,-0 -0,-0 -0.01,-0.02 -0.02,-0.02 -0.03,-0.02 -0.01,-0 -0.01,-0 -0.01,0l-0.03 -0.01c-0,-0.01 -0,0 -0,-0.01 -0,-0 -0,-0 -0,-0l-0.01 -0.04c-0,-0.01 -0,-0 -0,-0.01l-0.02 -0c-0,0 -0,0 -0,0l-0.01 0c-0.01,0 0,0 -0.01,0z"/>
   <path class="fil1" d="M0.84 1.75c0,0 0.01,0 0.01,0 0.01,0 0,0 0.01,0l0.01 0c0,-0 0,-0 0,-0l0.02 -0.01c0,-0 0,-0 0,-0l0.05 -0.01c0,-0 0,-0 0,-0l0.03 -0.01c0,-0 0,-0 0,-0 0,-0 0,-0 0,-0l0.04 -0.01 0 -0.01c0,-0 0,-0.01 0,-0.01 -0,-0 -0,-0.01 -0,-0.02l-0.01 -0.01c-0.01,-0 -0.01,0 -0.01,-0.01l-0.01 -0c-0,0 -0,0 -0.02,0l-0.01 0c-0,0 -0,0 -0,0l-0.06 0.02c-0,0 -0,0 -0,0 -0,0 -0,0 -0,0l-0 0c-0,0 -0,0 -0,0l-0.01 0c-0,0 -0,0 -0,0 -0,0 -0,0 -0,0 -0.01,0 0.01,-0 -0,0l-0.02 0.01c-0.01,0 -0.02,0.02 -0.02,0.03l0 0.01c0,0 0,0 0,0 0,0 0,0 0,0l0 0z"/>
   <path class="fil1" d="M1.13 2.36l0.01 -0.03c-0,-0 -0,0 -0,-0 -0,-0 -0,-0 -0,-0l0 -0.01c-0.01,-0 -0.01,-0.01 -0.03,-0.01l-0.06 0.01c-0.01,0 0.01,-0 -0,0l-0.01 0c-0,0 -0,0 -0,0 -0.01,0 0.01,-0 -0,0 -0,0 -0,0 -0,0l-0.01 0c-0.01,0 0.01,-0 -0,0l-0.03 0.01c-0,0 0,0 -0,0l-0.01 0c-0,0 -0,0 -0.01,0l-0.01 0.01c-0,0.01 -0.01,0.01 -0,0.02l0 0c0,0.01 0.01,0.02 0.02,0.02l0.03 -0.01c0,-0 0,-0 0,-0l0 -0c0,-0 0,-0 0,-0 0,-0 0,-0 0,-0l0 -0c0,-0 0,-0 0,-0 0,-0 0,-0 0,-0l0.02 -0c0,-0 0,-0 0,-0 0,-0 0,-0 0,-0 0,-0 0,-0 0,-0l0.01 -0c0,-0 0,-0 0,-0 0,-0 0,-0 0,-0l0.01 -0c0,-0 0,-0 0,-0 0,-0 0,-0 0,-0l0.03 -0.01c0,-0 0,-0 0,-0l0.01 -0.01c0,-0 0,-0 0,-0 0,-0 0,-0 0,-0 0,-0 0,-0 0.01,-0z"/>
   <path class="fil1" d="M3.26 0.77l-0 0.02c0,0 0,0.01 0,0.01 0,0 0,0 0,0l0.02 0.06c0,0 0,0 0,0l0.01 0.06c0,0.01 0.01,0.01 0.01,0.01 0.01,0 0.01,0 0.02,0l0 -0c0.01,-0 0.01,-0 0.01,-0.01 0,-0 0,-0 0,-0 0,-0 0,-0.01 0,-0.01l-0 -0.02c-0,-0 -0,-0 -0,-0l-0 -0.02c-0,-0 -0,-0 -0,-0 -0,-0 -0,-0 -0,-0l-0 -0.01c-0,-0 -0,-0 -0,-0l-0.01 -0.05c-0,-0 -0,-0 -0,-0l-0.01 -0.02c-0,-0 -0,-0 -0,-0l-0 -0.01c-0,-0 -0,-0 -0,-0.01 -0,-0 -0.01,-0 -0.01,-0.01l-0.02 -0c-0,0 -0.01,0.01 -0.01,0.01 -0,0 -0,0 -0,0z"/>
   <path class="fil1" d="M0.59 1.78c-0,0.01 -0.01,0.01 -0.01,0.02l0 0.01c0,0 0,0 0,0 0,0 0,0 0,0 0,0 0,0 -0,0.01 0.01,0 -0,0 0.01,0.01 0,0 0.01,0 0.02,0l0.03 -0.01c0,-0 0,-0 0,-0l0.03 -0.01c0,-0 0,-0 0,-0l0.05 -0.01c0,-0 0,-0 0,-0 0,-0 0,-0 0,-0l0.03 -0.01c0.01,-0 0.01,-0 0.02,-0.01l0 -0.02c-0,-0.01 -0,-0 -0,-0.01 -0.01,-0 -0.01,-0.01 -0.02,-0.01 -0,0 -0,0 -0,0l-0.02 0c-0,0 -0,0 -0,0l-0.07 0.02c-0,0 -0,0 -0,0 -0,0 -0,0 -0,0 -0,0 -0,0 -0,0l-0.01 0c-0,0 -0,0 -0,0 -0,0 -0,0 -0,0l-0.03 0.01c-0,0 -0,0 -0,-0z"/>
   <path class="fil1" d="M1.78 3.09l0.03 -0.16c-0.01,-0 -0.01,-0.03 -0.04,-0.02l-0.01 0.01c-0,0 -0,0 -0,0 -0,0.01 -0.02,0.11 -0.03,0.14 -0,0.01 -0,0.01 0,0.02 0,0 0,0 0,0l0.01 0.01c0,0 -0,-0 0,0 0,0 0,0 0,0 0.01,0 0.01,-0 0.02,-0.01 0.01,-0.01 0,-0 0.01,-0z"/>
   <path class="fil1" d="M2.95 1.61l-0 0.01c0,0 0,-0 0,0 0,0 -0,0 0,0.01l0.04 0.11c0,0.01 0,0.01 0.01,0.01 0,0 0,0 0,0 0,0 0,0 0,0l0.03 0.01c0,-0.01 0.01,-0 0.01,-0.01 0,-0 0.01,-0.01 0.01,-0.01 0,-0.01 0,-0 -0,-0.01 -0,-0 -0,-0 -0,-0 -0,-0 -0,-0 -0,-0l-0 -0c-0,-0 -0,-0 -0,-0 -0,-0 -0,-0 -0,-0l-0.01 -0.05c-0,-0.01 -0,-0.01 -0.01,-0.02l-0 -0.02c-0,-0 -0,-0 -0,-0l-0.01 -0.04c-0,-0 -0,-0 -0,-0 -0,-0 -0,-0 -0,-0 -0,-0 -0,-0 -0,-0 -0,-0.01 -0,-0 -0,-0.01l-0.02 -0c-0,0.01 0,0 -0.01,0 -0,0 -0,0 -0,0 -0,0 -0,0 -0,0 -0.02,0.01 -0,0.01 -0.01,0.01z"/>
   <path class="fil1" d="M3.08 1.34l-0.01 0.03 0.01 0.02c0.01,0 0,-0 0.01,0l0.01 0c0,-0.01 0,0 0.02,-0.01l0.01 -0.01c0,-0 0,-0 0,-0 0,-0 0,-0 0,-0l0.01 -0.01c0,-0 0,-0 0,-0 0.01,-0.01 0.01,-0 0.02,-0.01 0,-0 0,-0 0.01,-0.01 0,-0 -0,0 0,-0 0,-0 0,-0 0,-0l0.02 -0.02c0,-0 0,-0 0,-0 0,-0 0,-0 0,-0l0.02 -0.02c0,-0 0,-0 0.01,-0l0 -0.02 -0.01 -0.01c-0,-0 -0,-0 -0,-0.01l-0.02 -0c-0,0.01 -0,0 -0.01,0.01l-0.01 0.01c-0,0 -0,0 -0,0l-0.02 0.02c-0,0 -0,0 -0.01,0.01l-0 0c-0,0 -0,0 -0,0 -0.01,0.01 -0.01,0 -0.02,0.02 -0,0 -0,0 -0,0l-0.02 0.01c-0,0 -0.01,0.01 -0.02,0.01z"/>
   <path class="fil1" d="M0.39 2l0.03 0.01c0,-0 0,-0 0,-0 0,-0 0,-0 0,-0 0,-0 0,-0 0,-0l0.06 -0.07c0,-0 0,-0 0,-0l0.01 -0.01c0,-0 0,-0 0,-0 0,-0 0,-0 0,-0 0,-0 0,-0 0,-0l0.01 -0.01c0,-0 0,-0 0,-0 0,-0 0,-0 0,-0l0 -0.01c0,-0 0,-0 0,-0 0,-0 0,-0.01 0,-0.01 -0,-0.01 -0.01,-0.01 -0.01,-0.02l-0.02 -0c-0,0 -0,0 -0.01,0.01l-0.02 0.02c-0,0 -0,0 -0,0l-0.02 0.02c-0,0 -0,0 -0,0l-0.01 0.01c-0,0 -0,0 -0,0 -0,0 -0,0 -0,0l-0.03 0.05c-0,0 -0,0 -0,0l-0.01 0.01c-0,0 -0,0.01 -0,0.02 0,0.01 0,0.01 0.01,0.01z"/>
   <path class="fil1" d="M2.89 1.41c-0,0.01 -0,0.01 -0.01,0.01l-0 0.01c0,0 0,0 0,0.01l0.01 0.01c0,0 0,0 0,0l0.01 0.03c0,0 0,0 0,0 0.01,0.01 0.01,0.04 0.03,0.03 0,-0 0.01,-0 0.01,-0 0,-0.01 0.01,-0.01 0.01,-0.02l-0 -0.01c-0,-0 -0,-0 -0,-0l-0 -0.01c-0,-0 -0,-0 -0,-0l-0 -0.01c-0,-0 -0,-0 -0,-0.01l0.01 -0c0,-0 0,-0 0,-0 0,-0 0,-0 0,-0 0,-0 0,-0 0,-0 0,-0 0,-0 0,-0l0.04 -0.01 0 -0.02c-0,-0 -0,-0 -0,-0 -0,-0.01 -0.01,-0.01 -0.01,-0.01l-0.02 -0c-0,0 -0.01,0 -0.02,0 -0,0 -0,0 -0.01,0 -0.01,-0 -0.01,0 -0.02,0 -0,0 -0,0 -0,0l-0.01 0c-0,0 -0,0 -0,0l-0.02 0c-0.01,0 0,0 -0,0z"/>
   <path class="fil1" d="M1.82 2.66l-0.03 0.15c0,0 0,0 0,0.01l0 0c0,0 0,0 0,0l0.01 0.01c0,0 0,0 0,0 0,0 0,0 0,0 0.01,0.01 0.01,0 0.01,0l0.01 -0c0,-0 0,-0 0,-0l0.01 -0.01c0,-0.01 0.02,-0.12 0.03,-0.13 0,-0.01 0.01,-0 0.01,-0.01 0,-0.01 0,0 -0,-0.01l-0 -0.01 -0.01 -0.01c-0,-0 -0,-0 -0.01,-0 -0.01,-0 -0,-0 -0.01,0 -0.01,0 -0.01,0.01 -0.01,0.01z"/>
   <path class="fil1" d="M1.55 1.19c0,-0 -0,-0 0,-0l0 -0c0,-0 0,-0 0,-0 0,-0 0,-0 0,-0l0 -0.01c0,-0 0,-0 0,-0l-0 -0.01c-0,-0.01 -0.01,-0.02 -0.01,-0.03 -0,-0 -0,-0 -0,-0l-0.02 -0.05c-0,-0 -0,-0 -0,-0l-0 -0.02c-0,-0 -0,-0 -0,-0l-0.01 -0.02c-0,-0.01 -0,-0.01 -0.01,-0.02l-0 -0c-0,-0 -0.01,-0.01 -0.02,-0l-0 0c-0.01,0 -0.02,0.01 -0.02,0.02 -0,0.01 0,0 0,0.01l0 0.02c0,0.01 0,0 0.01,0.02l0 0.02c0,0 0,0 0,0l0.01 0.03c0,0 0,0 0,0l0.01 0.02c0,0 0,0 0,0l0.01 0.02c0,0 0.01,0.01 0.01,0.02l0.01 0.01c0.01,0 0.01,-0 0.02,-0z"/>
   <path class="fil1" d="M2.95 2.36l-0.01 0.04c-0,0 -0,-0 -0.01,0.01 -0,0.01 -0,0.02 -0.01,0.02l-0.02 0.04c-0.01,0.01 -0.01,0.02 -0.01,0.03 0,0.01 0,0.01 0.01,0.01l0.03 0.01c0,-0.01 0.01,-0 0.01,-0.01l0.01 -0.01c0,-0 0,-0 0,-0 0,-0 0,-0 0,-0 0,-0 0,-0 0,-0l0.01 -0.02c0.01,-0.01 0,-0.01 0.01,-0.02 0.01,-0.01 0,-0 0.01,-0.02l0 -0.01c0,-0 -0,0 0,-0l0.01 -0.02c0,-0.01 0,-0.01 -0,-0.01l0.01 -0.04c-0.01,-0 -0,-0 -0.01,-0.01 -0.01,-0.01 -0.01,-0.01 -0.02,-0.01 -0.01,0 -0.01,0.01 -0.01,0.01z"/>
   <path class="fil1" d="M2.6 0.55l-0 0.01c0.01,0 0,0.01 0,0.01l0.01 0.01c0,0 0,0 0,0l0 0c0.01,0 0.01,0.01 0.02,0.01 0,-0 0,-0 0,-0l0.01 -0c0.01,-0 0.01,-0.01 0.02,-0.01l0.03 -0.01c0,-0 0,-0 0,-0l0.02 -0.01c0,-0 0,-0 0,-0l0.01 -0c0,-0 0,-0 0,-0l0.01 -0c0,-0 0,-0 0,-0 0.01,-0 0.02,-0.01 0.03,-0.01 0,-0.01 -0,-0 0,-0.01l0 -0.01c-0.01,-0 -0,0 -0,-0.01 -0,-0 0,-0 -0,-0 -0,-0 -0,-0 -0,-0l-0.01 -0.01c-0,-0 -0,-0 -0,-0l-0 -0c-0.01,-0.01 -0.04,0 -0.05,0.01l-0 0c-0,0 -0,0 -0,0l-0.01 0c-0,0 -0,0 -0,0l-0.07 0.03c-0,0 -0,0 -0.01,0l-0.01 0c-0,0 -0,0 -0,0 -0.01,0 -0,0.01 -0.01,0.01z"/>
   <path class="fil1" d="M0.49 2.33l-0.02 -0c-0,0.01 -0.01,0.01 -0.01,0.01 -0.01,0.01 -0.01,0.01 -0,0.02 0,0.01 0,0.01 0.01,0.02l0.04 0.03c0,0 0,0 0,0l0.05 0.03c0,0 0,0 0,0 0,0 0,0 0,0l0.02 0.01c0.01,0.01 0.03,0.01 0.04,-0 0,-0 0,-0 0,-0l0 -0c0,-0 0,-0 0,-0l0 -0.01c-0,-0.01 -0,-0.01 -0.01,-0.02 -0,-0 -0,-0 -0,-0l-0.03 -0.01c-0,-0 -0,-0 -0,-0l-0.01 -0c-0,-0 -0,-0 -0,-0 -0,-0 -0,-0 -0,-0 -0,-0 -0,-0 -0,-0l-0.02 -0.01c-0,-0 -0,-0 -0,-0 -0,-0 -0,-0 -0,-0 -0,-0 -0,-0 -0,-0l-0.01 -0c-0,-0 -0,-0 -0,-0 -0,-0 -0,-0 -0,-0l-0.03 -0.02c-0,-0 -0,-0 -0,-0 -0,-0 -0,-0 -0,-0.01z"/>
   <path class="fil1" d="M3.14 0.57l-0.02 -0c-0,0.01 0,0 -0,0 -0,0 -0,0 -0,0l-0.01 0.01c-0,0 -0,0.01 -0,0.01 0,0 0,0 0,0l0.04 0.04c0.01,0.01 0.01,0.01 0.02,0.02l0.04 0.05c0.01,0 0.01,0.01 0.02,0.01 0,-0 0.01,-0 0.01,-0l0.01 -0.01c0,-0.01 0,-0.01 0,-0.02l-0.03 -0.04c-0,-0 -0,-0 -0,-0l-0.01 -0.01c-0,-0 -0,-0 -0,-0 -0,-0 -0,-0 -0,-0 -0,-0 -0,-0 -0,-0l-0.01 -0.01c-0,-0 -0,-0 -0,-0 -0,-0 -0,-0 -0,-0l-0.03 -0.02c-0.01,-0.01 -0.01,-0.01 -0.01,-0.01z"/>
   <path class="fil1" d="M2.42 0.72l-0 0.02c0,0 0.01,0 0,0.01 0.01,0 0.01,0.01 0.02,0.01 0.01,-0 0.01,-0 0.01,-0.01l0.01 -0.02c0,-0 0,-0 0,-0l0.01 -0.02c0,-0 0,-0 0,-0l0.05 -0.06c0,-0 0,-0 0,-0l0.01 -0.01c0,-0 0,-0 0,-0.01l-0 -0.01c-0,-0 -0,-0 -0,-0l-0 -0c-0,-0 -0.01,-0.01 -0.01,-0.01l-0.02 -0c-0,0 0,0 -0,0l-0.01 0c-0,0 -0,0 -0,0l-0 0c-0,0 -0,0 -0,0l-0.03 0.03c-0.01,0 -0,-0 -0.01,0.01 -0,0 -0,-0 -0,0 -0,0 -0,0 -0,0l-0.01 0.02c-0,0 -0,0 -0,0 -0,0 -0,0 -0,0l-0.02 0.03c-0,0 -0,0 -0,0.01 -0,0 0,0 -0,0z"/>
   <path class="fil1" d="M1.44 0.7c0,-0 0,-0 0,-0l0.01 -0.01 0.01 -0.07c0.01,-0 0,0 0,-0.01 0,-0.01 -0,-0 0.01,-0.01l0 -0.01c0,-0 0,-0 0,-0 0,-0 0,-0 0,-0l0 -0c0,-0 0,-0 0,-0 0,-0 0,-0 0,-0l0.01 -0.01c0,-0.01 -0,-0.01 0.01,-0.01l0 -0.01c-0.01,-0 -0,0 -0,-0.01 -0,-0.02 -0.01,-0.01 -0.01,-0.02l-0.03 -0.01c-0,0 -0,0 -0,0 -0.01,0.01 -0.01,0.01 -0.02,0.02l-0.01 0.02c-0,0 -0,0 -0,0 -0,0 -0,-0 -0,0 -0,0.01 0,0 -0.01,0.01 -0,0 -0,0 -0,0.01 -0.01,0.02 -0,0 -0.01,0.04 -0,0.01 -0.01,0.02 -0,0.03 0,0 0,0 0,0.01l0.02 0.02c0.01,0 -0,0 0.01,-0 0,-0 0,-0 0,-0l0.01 -0z"/>
   <path class="fil1" d="M1.14 2.73l-0.01 0.06c-0,0 -0.01,-0 -0.01,0.01 0,0.02 0,0 -0,0.03 -0,0.01 -0,0.02 -0.01,0.02 -0,0 -0,0 -0,0 -0,0 -0.01,0.01 -0,0.02l-0 0.02c0,0 0.01,0.01 0.01,0.02l0.02 0 0.01 -0c0,-0 0,-0 0,-0 0,-0 0,-0 0,-0l0.04 -0.17c-0,-0 -0,-0 -0,-0l-0 -0.01 -0.03 -0.01c-0,0 -0.01,0.01 -0.01,0.01z"/>
   <path class="fil1" d="M3.25 1.15l-0.01 0.03c0.01,0 0,-0 0,0 0,0 -0,0 0,0l0.01 0c0.01,0 0,-0 0,0l0.01 0c0,-0.01 -0,-0 0.01,-0 0,-0 0,-0 0,-0 0,-0 0,-0 0.01,0 0,-0 0,-0 0,-0 0,-0 0,-0 0,-0l0.02 -0.04c0,-0.01 -0,-0 0.01,-0.02 0,-0 0,-0 0,-0.01 0,-0.01 0,-0.01 0,-0.02 0,-0 0,-0 0,-0 0,-0 0,-0 0,-0 0,-0 0,-0 0,-0 0,-0 0,-0 0,-0 0,-0 0.01,-0.06 0.01,-0.06l-0.02 -0.02 -0.01 0 -0.01 0.01c-0.01,0.01 -0.01,0.06 -0.02,0.08l-0 0c-0,0.01 0,0.01 -0.01,0.02 -0.01,0.01 -0,0.01 -0.01,0.01z"/>
   <path class="fil1" d="M1.96 0.55l-0 0.02 0.01 0.02c0,0 0,0 0,0.01l0.02 0.06c0,0 0,0 0,0 0,0.01 0,0.02 0.01,0.02l0 0c0,0.01 0,0.01 0.01,0.01 0,0 0.01,0 0.01,0.01l0.01 0c0,-0.01 0,-0 0.01,-0 0,-0 0,-0 0,-0 0.01,-0 0.01,-0.01 0.01,-0.01l0 -0.02c-0,-0 -0,-0 -0,-0.01 -0,-0 -0,-0 -0,-0l-0 -0.01c-0,-0 -0,-0 -0,-0l-0 -0.01c-0,-0 -0,-0 -0,-0l-0 -0.01c-0,-0 -0,-0 -0,-0 -0,-0.01 0,0.01 -0,-0l-0.02 -0.06 -0.02 -0.02c-0,-0 -0,-0 -0,-0 -0.01,-0 -0.02,-0.01 -0.02,-0.01l-0.01 0c-0,0 0,-0 -0,0 -0.01,0 -0,0 -0.01,0.01z"/>
   <path class="fil1" d="M1.53 0.45l-0.01 0.03c0.01,0 0.01,0.01 0.01,0.01l0 0c0,0 0,0 0,0 0,0 0,0 0.01,0 0.01,-0 0.03,-0.02 0.05,-0.02l0.01 -0.01c0,-0 0,-0 0,-0 0,-0 0,-0 0,-0 0,-0 0,-0 0,-0l0.06 -0.02c0,-0 0,-0 0,-0 0,-0 0,-0 0,-0 0,-0 0,-0 0,-0l0.01 -0.01c0,-0 0,-0 0,-0 0,-0 0,-0 0,-0 0,-0 0,-0.01 0,-0.01 -0,-0.01 -0.01,-0.02 -0.03,-0.02 -0.01,-0 -0,-0 -0.01,0l-0.02 0.01c-0,0 -0,0 -0,0l-0.01 0c-0.01,0 0.01,-0 -0,0l-0.02 0.01c-0,0 -0,0 -0,0l-0.04 0.02c-0.01,0 -0.02,0.01 -0.03,0.02 -0.01,0 0,0 -0.01,0z"/>
   <path class="fil1" d="M3.02 1.84c-0,0 0,0 -0,0l-0 0c-0,0 -0,0 -0,0l-0.01 0.01c0,0 0,0 0,0 -0,0.01 -0,0 0,0.01l0.01 0.03c0,0.01 0,0.02 0,0.04 0,0 0,0 0,0 0,0 0,0 0,0 0,0.01 -0,0.01 -0,0.01 0,0 0,-0 0,0.01 -0,0 -0,0.01 -0,0.01 -0,0.01 -0,0.01 -0,0.02 0,0 0,0 0,0l0 0c0,0 0,0 0,0 0,0.02 0.03,0.02 0.04,0.01l0 -0c0,-0 0,-0 0,-0 0,-0.01 -0,-0 0,-0.01l0 -0.01c-0,-0 -0,0 -0,-0 -0,-0 0,-0.01 0,-0.01 0,-0.01 -0,-0 0,-0.02 0,-0 0,0 0,-0l-0 -0.03c0,-0.01 -0,-0 -0,-0.01 -0,-0 -0,-0 -0,-0l-0 -0.04c-0,-0 -0,-0 -0,-0 -0,-0 -0,-0 -0,-0l-0 -0.02c-0,-0 -0,-0 -0,-0 -0,-0 -0,-0 -0,-0l-0 -0.01c-0,-0 -0,-0.01 -0.01,-0.01l-0.03 -0z"/>
   <path class="fil1" d="M2.85 0.49l-0 0.02c0.01,0 0,0.01 0.01,0.01l0 0c0.01,0.01 0.02,0.01 0.03,0.01 0.01,0 0,-0 0.01,-0 0.01,-0 0.04,0.01 0.05,0.01l0.03 0.01c0.01,0 0,-0 0.01,0l0.04 0.01c0,-0 0,-0 0,-0 0,-0 0,0 0.01,-0.01l0 -0.01c0,-0 0,-0.01 0,-0.01l-0.01 -0.02c-0,-0 0,-0 -0.01,-0 -0,-0 -0.01,-0 -0.02,-0 -0,-0 -0,-0 -0.01,-0 -0.01,-0.01 -0.01,-0 -0.02,-0.01 -0.02,-0 -0.05,-0.01 -0.07,-0.01 -0,0 -0,0 -0,0 -0.02,0 -0.01,-0.01 -0.03,-0 -0,0 -0,0 -0,0 -0,0 -0,0 -0,0 -0.01,0 -0,0.01 -0.01,0.01z"/>
   <path class="fil1" d="M1.43 0.78l-0 0c-0.01,0 -0.02,0.02 -0.01,0.03 0,0 0,0 0,0 0,0 -0,-0 0,0 0,0 0,0 0,0l0 0.01c0,0 0,0 0,0l0.01 0.05c0,0 0,0 0,0 0,0.01 0.01,0.02 0.01,0.04l0 0.01c0,0 0,0 0,0 0,0 0,0 0,0 0,0 0,0 0,0l0 0c0,0.01 0.02,0.01 0.03,0.01l0.01 -0.01c0,-0 0,-0 0,-0 0,-0 0,-0 0,-0 0,-0 0,0 0,-0.01 0,-0 0,-0.01 0,-0.01 0,-0.01 -0,-0.01 -0,-0.01 -0,-0 -0,-0 -0,-0l-0.03 -0.1c-0,-0 -0,-0 -0,-0l-0.01 -0.02c-0.01,-0 -0.01,-0.01 -0.02,-0.01 -0,0 -0,-0 -0,0z"/>
   <path class="fil1" d="M1.21 2.3l-0 0.01c0.01,0 0,-0 0,0.01 0,0.01 -0,0.01 0.01,0.02 0.01,0.01 0.02,0 0.03,0 -0,0.01 0,0 -0,0.01l-0 0.01c0.01,0 0,-0 0,0.01 0,0 0,0 0,0 0,0 0,0 0,0l0.01 0.01c0,0 0,0 0,0 0.01,0.01 0.03,-0 0.03,-0.01l0.02 -0.03c0,-0 0,-0 0,-0l0.01 -0.01c0,-0 0,-0 0,-0l0 -0.01c0,-0 0,-0 0.01,-0l0 -0.02c-0.01,-0 -0,-0 -0.01,-0.01 -0,-0 -0,-0 -0,-0 -0.01,-0.01 -0.01,-0.01 -0.02,-0.01l-0.02 0.01c-0,0 -0,0 -0,0l-0 0c-0,0 -0,0 -0,0 -0,0 -0,0 -0,0 -0,0 -0,0 -0,0 -0.01,0 -0.01,-0 -0.02,0 -0,0 -0,0 -0,0l-0.01 0c-0,0 -0,0 -0,0 -0.01,0 -0.01,0 -0.01,0.01l-0.01 0.01c-0,0.01 0,0.01 -0.01,0.01z"/>
   <path class="fil1" d="M1.07 3.18c0,0 0,0 0.01,0 0,0 0,0 0,0 0,0 0.01,0.01 0.02,0.01 0.01,0 -0,0 0,0l0.01 -0c0,-0 0,-0 0,-0l0.01 -0.01c0,-0.01 0.01,-0.02 0,-0.02l-0.01 -0.04c-0,-0 -0,-0 -0,-0l-0 -0.03c-0,-0 0,-0 0,-0.01 0,-0.01 -0,0 0,-0.03 0,-0.01 0,-0.01 0,-0.02l-0 -0c-0,-0 -0,0 -0,-0 -0.01,-0 -0.04,-0.01 -0.04,-0.01 -0,0 -0,0.01 -0,0.01 -0,0.01 -0.01,0.03 -0.01,0.04 0,0.01 -0,0.01 -0,0.02l0 0.02c-0,0 -0,0 -0,0.01l0 0.03c0,0 0,0 0,0 0,0 0,0 0,0l0.01 0.03z"/>
   <path class="fil1" d="M1.58 1.25l-0 0.02c0.01,0 0.01,0.01 0.01,0.02l0.02 0.02c0,0 0,0 0,0l0.03 0.03c0,0 0,0 0,0 0,0 0,0 0,0 0,0 0,0 0,0l0.03 0.03c0,0 -0,-0 0,0 0.01,0 0,0 0.01,-0 0,-0 0,-0 0,-0l0 -0c0,-0 0.01,-0 0.01,-0 0.01,-0 -0,-0 0.01,-0l0 -0.02c-0,-0 -0,-0.01 -0,-0.01l-0.01 -0.01c-0.01,-0.01 -0.01,-0.01 -0.01,-0.01 -0,-0 -0,-0 -0,-0l-0.02 -0.02c-0,-0 -0,-0 -0,-0l-0.01 -0.01c-0,-0 -0,-0 -0,-0l-0.02 -0.03c-0,-0 -0,-0 -0,-0l-0 -0c-0,-0 0,0 -0,-0 -0,-0 -0.01,-0.01 -0.01,-0.01l-0.02 -0c-0,0.01 -0.01,0.01 -0.02,0.01z"/>
   <path class="fil1" d="M3.01 2.11l-0.03 0.15c0.01,0 -0,0.01 0.01,0.01 0,0 0,0 0.01,0 0,0 0.01,0.01 0.02,0l0.01 -0c0.01,-0.01 -0,-0.01 0.01,-0.01l0.03 -0.15c-0.01,-0 -0,0 -0,-0 -0,-0 0,-0 -0,-0 -0.01,-0.01 -0.01,-0 -0.01,-0.01l-0.01 -0c-0,0.01 0,0 -0.01,0 -0.01,0 -0,0 -0.01,0 -0.01,0 0,0 -0.01,0z"/>
   <path class="fil1" d="M2.34 2.18l-0 0.02c0,0 0.01,0.01 0.01,0.01 0,0 0,0 0,0l0.03 0.01c0,0.01 -0,-0.01 0,0 0,0 0,0 0,0l0.01 0.01c0.01,0 0.01,0 0.01,-0l0 -0c0.01,-0 0.01,-0.01 0.01,-0.01l0.01 -0.06c-0.01,-0 -0,-0 0,-0.02 0,-0 0,-0 0,-0.01l-0 -0c-0,-0 -0,-0 -0,-0l-0.01 -0.01c-0,-0 -0,-0 -0,-0l-0 -0c-0,-0 -0,-0 -0,-0 -0,-0 -0,-0 -0.01,-0 -0,0 -0,0 -0,0l-0.01 0c-0,0 -0,0 -0,0 -0,0 -0,0 -0,0l-0 0c-0,0 -0,0 -0.01,0l-0.04 0.04c-0.01,0.01 -0,0.01 -0.01,0.01z"/>
  </g>
 </g>
</svg>
