<?xml version="1.0" encoding="UTF-8"?>
<!DOCTYPE svg PUBLIC "-//W3C//DTD SVG 1.0//EN" "http://www.w3.org/TR/2001/REC-SVG-20010904/DTD/svg10.dtd">
<!-- Creator: CorelDRAW 2021 (64-Bit) -->
<svg xmlns="http://www.w3.org/2000/svg" xml:space="preserve" width="12.7mm" height="12.7mm" version="1.0" style="shape-rendering:geometricPrecision; text-rendering:geometricPrecision; image-rendering:optimizeQuality; fill-rule:evenodd; clip-rule:evenodd"
viewBox="0 0 3.71 3.71"
 xmlns:xlink="http://www.w3.org/1999/xlink"
 xmlns:xodm="http://www.corel.com/coreldraw/odm/2003">
 <defs>
  <style type="text/css">
   <![CDATA[
    .fil0 {fill:#990000}
    .fil1 {fill:white;fill-rule:nonzero}
   ]]>
  </style>
 </defs>
 <g id="Livello_x0020_1">
  <metadata id="CorelCorpID_0Corel-Layer"/>
  <path class="fil0" d="M0.44 0l2.82 0c0.24,0 0.44,0.2 0.44,0.44l0 2.82c0,0.24 -0.2,0.44 -0.44,0.44l-2.82 0c-0.24,0 -0.44,-0.2 -0.44,-0.44l0 -2.82c0,-0.24 0.2,-0.44 0.44,-0.44z"/>
  <path class="fil1" d="M1.41 0.68c-0.09,-0.15 -0.26,-0.25 -0.45,-0.25 -0.3,0 -0.53,0.24 -0.53,0.53 0,0.15 0.07,0.29 0.17,0.39 0.17,-0.32 0.46,-0.56 0.81,-0.68zm1.33 -0.25c-0.19,0 -0.36,0.1 -0.45,0.25 0.35,0.11 0.64,0.36 0.81,0.68 0.11,-0.1 0.17,-0.24 0.17,-0.39 0,-0.3 -0.24,-0.53 -0.53,-0.53zm-0.89 2.5c-0.49,0 -0.89,-0.4 -0.89,-0.89 0,-0.49 0.4,-0.89 0.89,-0.89 0.49,0 0.89,0.4 0.89,0.89 0,0.49 -0.4,0.89 -0.89,0.89zm0 -2.14c-0.69,0 -1.25,0.56 -1.25,1.25 0,0.28 0.09,0.54 0.25,0.75l-0.2 0.2c-0.03,0.03 -0.05,0.08 -0.05,0.12 0,0.11 0.09,0.18 0.18,0.18 0.05,0 0.09,-0.02 0.12,-0.05l0.2 -0.2c0.21,0.16 0.47,0.25 0.75,0.25 0.28,0 0.54,-0.09 0.75,-0.25l0.2 0.2c0.04,0.04 0.08,0.05 0.12,0.05 0.09,0 0.18,-0.07 0.18,-0.18 0,-0.05 -0.02,-0.09 -0.05,-0.12l-0.2 -0.2c0.16,-0.21 0.25,-0.47 0.25,-0.75 0,-0.69 -0.56,-1.25 -1.25,-1.25zm0.49 1l0 0.01c0,0.06 -0.05,0.12 -0.12,0.12l-0.23 0 0 0.74c0,0.07 -0.06,0.13 -0.13,0.13l-0.01 0c-0.07,0 -0.13,-0.06 -0.13,-0.13l0 -0.74 -0.23 0c-0.06,0 -0.12,-0.05 -0.12,-0.12l0 -0.01c0,-0.06 0.05,-0.12 0.12,-0.12l0.23 0 0 -0.25c0,-0.07 0.06,-0.13 0.13,-0.13l0.01 0c0.07,0 0.13,0.06 0.13,0.13l0 0.25 0.23 0c0.06,0 0.12,0.05 0.12,0.12z"/>
 </g>
</svg>
