<?xml version="1.0" encoding="UTF-8"?>
<!DOCTYPE svg PUBLIC "-//W3C//DTD SVG 1.0//EN" "http://www.w3.org/TR/2001/REC-SVG-20010904/DTD/svg10.dtd">
<!-- Creator: CorelDRAW 2021 (64-Bit) -->
<svg xmlns="http://www.w3.org/2000/svg" xml:space="preserve" width="12.7mm" height="12.7mm" version="1.0" style="shape-rendering:geometricPrecision; text-rendering:geometricPrecision; image-rendering:optimizeQuality; fill-rule:evenodd; clip-rule:evenodd"
viewBox="0 0 3.71 3.71"
 xmlns:xlink="http://www.w3.org/1999/xlink"
 xmlns:xodm="http://www.corel.com/coreldraw/odm/2003">
 <defs>
  <style type="text/css">
   <![CDATA[
    .fil0 {fill:#990000}
    .fil1 {fill:white}
   ]]>
  </style>
 </defs>
 <g id="Livello_x0020_1">
  <metadata id="CorelCorpID_0Corel-Layer"/>
  <path class="fil0" d="M0.44 0l2.82 0c0.24,0 0.44,0.2 0.44,0.44l0 2.82c0,0.24 -0.2,0.44 -0.44,0.44l-2.82 0c-0.24,0 -0.44,-0.2 -0.44,-0.44l0 -2.82c0,-0.24 0.2,-0.44 0.44,-0.44z"/>
  <g id="_2310762863712">
   <path class="fil1" d="M0.68 2.92c-0,-0.01 0,-0.03 0,-0.03l0.01 -0.02c0,-0 0,-0 0,-0 0,-0 0,-0 0,-0 0.01,-0.02 0.02,-0.04 0.03,-0.05l0.04 -0.02c0.02,-0.01 0.05,-0.01 0.07,-0 0,0 0,0 0,0l0 0c0,0 0,0 0,0l0.02 0.01c0,0 0.01,0.01 0.01,0.01 0,0 0,0 0,0 0,0 0,0 0,0 0,0 0,0 0.01,0 0.02,0.01 0.02,0.02 0.02,0.03l0.02 0.05c0,0 0,0.03 0,0.03 -0,0.01 -0,0.01 -0.01,0.02 -0,0 -0,0 -0,0l-0 0c-0,0 -0,0 -0,0l-0.02 0.04c-0,0 -0.01,0.01 -0.01,0.01l-0 0c-0,0 -0,0 -0.01,0 -0,0 -0.01,0.01 -0.01,0.01l-0.03 0.01c-0.01,0 -0.03,0 -0.05,0 -0.01,-0 -0.01,0 -0.01,-0 -0,-0 -0,-0 -0,-0l-0 -0c-0,-0 -0,-0 -0,-0l-0.02 -0.01c-0,-0 -0,-0 -0,-0l-0.01 -0.01c-0,-0 -0,-0 -0,-0l-0.04 -0.06c-0,-0 -0,-0 -0,-0 -0,-0.01 -0,-0.01 -0,-0.01 -0,-0.02 -0,0 -0.01,-0.01zm0.5 -0.1c-0.01,-0 -0,-0.01 -0.01,-0.03l-0 -0.01c-0,-0 -0,-0 -0,-0l-0.05 -0.08c0,-0 -0,-0 -0,-0l-0.01 -0.01c-0.01,-0.02 -0.03,-0.03 -0.05,-0.05l-0.03 -0.03c-0,-0 -0,-0 -0,-0 -0,-0 -0,-0 -0,-0l-0.03 -0.02c-0,-0 -0,-0 -0,-0 -0,-0 -0,-0 -0,-0l-0.09 -0.04c-0,-0 -0,-0 -0,-0 -0,-0 -0,-0 -0.01,-0l-0.02 -0.01c-0,-0 -0.01,-0 -0.01,-0 -0.03,-0 -0.02,-0 -0.04,-0.01l-0.04 0c-0.01,0.01 -0.03,0 -0.04,0 -0,0 -0,0 -0,0 -0,0 -0,0 -0,0l-0.14 0.06c-0,0 -0,0 -0,0l-0.03 0.02c-0.02,0.01 -0.03,0.03 -0.05,0.04 -0,0 -0,0 -0,0l-0 0.01c-0,0 -0,0 -0,0l-0.05 0.09c-0,0 -0,0 -0,0 -0,0 -0,0 -0,0 -0,0 -0,0 -0,0l-0.01 0.02c-0,0 -0,0 -0,0l-0.01 0.03c-0,0.01 -0,0.02 -0,0.03 -0.01,0.02 -0.01,0.06 -0,0.09 0,0 0,0.01 0,0.01 0,0.01 0,0.01 0.01,0.03l0.02 0.07c0,0 0,0 0,0 0,0 0,0 0,0l0.03 0.06c0,0 0,0 0.01,0.01l0.02 0.03c0.01,0.01 0.04,0.04 0.06,0.06 0,0 0,0 0,0 0.01,0 0.01,0.01 0.01,0.01l0.02 0.01c0,0 0,0 0.01,0l0.02 0.01c0,0 0,0 0,0l0 0c0,0 0,0 0,0 0,0 0,0 0,0 0,0 0,0 0,0 0,0 0,0 0,0l0.09 0.03c0.02,0 0.04,0 0.06,0.01 0.01,0 0.02,0 0.04,-0 0.02,-0 0.04,-0 0.05,-0.01l0.06 -0.02c0,-0 0,-0 0,-0 0,-0 0,-0 0,-0l0.13 -0.08c0,-0 0.01,-0.01 0.01,-0.01l0.04 -0.04c0,-0 0,-0 0,-0l0 -0.01c0,-0 0,-0 0.01,-0.01l0.01 -0.02c0.01,-0.02 0.01,-0.02 0.02,-0.04 0,-0.01 0,-0.01 0,-0.02l2.01 0c0,-0.01 0.01,-0.01 0.02,-0.01 0.03,-0.01 0.06,-0.04 0.07,-0.06l0.01 -0.03c0.01,-0.02 0.01,-0.03 0.01,-0.06l0 -0.69c0,-0.01 0,-0.03 -0,-0.03l-0.01 -0.02c-0.02,-0.04 -0.04,-0.04 -0.07,-0.05 -0.02,-0.01 -0.04,0 -0.05,0.01 -0,0 -0,0 -0,0l-0.03 0.01c-0,0 -0,0 -0,0l-0.01 0c-0,0 -0,0 -0,0l-0.03 0.02c-0,0 -0,0 -0,0l-0.06 0.03c-0,0 -0,0 -0,0 -0,0 -0,0 -0,0l-0.02 0.02c-0,0 -0,0 -0,0 -0,0 -0,0 -0,0l-0.02 0.01c-0,0 -0,0 -0,0l-0.07 0.04c-0,0 -0,0 -0.01,0l-0.01 0.01c-0.02,0.01 -0.02,0.01 -0.03,0.02l-0.02 0.01c-0,0 -0,0 -0,0 -0,0 -0,0 -0,0 -0,0 -0,0 -0,0 -0,0 -0,0 -0,0l-0.07 0.05c-0,0 -0,0 -0.01,0.01 -0.01,0.01 -0.02,0.01 -0.03,0.02 -0,0 -0.01,0.01 -0.02,0.02l-0.04 0.04c-0.01,0.01 -0.02,0.02 -0.03,0.03 -0.01,0.01 -0.05,0.04 -0.05,0.05l-0.05 0 -0.01 -0.01c-0.02,-0.02 -0.01,-0.14 -0.01,-0.16l-0 -0.25c-0,-0 -0,-0 -0,-0 -0,-0 -0,-0 -0,-0l-0.01 -0.01c-0.01,-0.01 -0.04,-0.02 -0.05,-0.02l-0.07 0.04c-0,0 -0,0 -0,0 -0.01,0.01 -0.02,0.01 -0.02,0.02 -0,0 -0,0 -0,0l-0.07 0.05c-0,0 -0,0 -0,0l-0.06 0.05c-0,0 -0,0 -0,0l-0.01 0c-0,0 -0,0 -0,0l-0.03 0.03c-0,0 -0,0 -0.01,0 -0.01,0 -0.01,0.01 -0.01,0.01l-0.04 0.04c-0.02,0.02 -0.05,0.05 -0.06,0.06l-0.06 0.07c-0.01,0.01 -0.02,0.03 -0.04,0.04l-0.07 0.07c-0.01,0.01 -0,-0 -0.01,0.01l-0.04 0c-0,-0.01 -0.01,-0.01 -0.01,-0.02l-0.01 -0.01c-0.01,-0.02 -0,-0.18 -0,-0.21 0,-0.02 0,-0.21 -0,-0.23 -0,-0.01 -0.01,-0.02 -0.02,-0.02l-0.01 -0.01c-0.01,-0.01 -0.02,-0 -0.03,0l-0.02 0.01c-0,0 -0,0 -0.01,0l-0.01 0c-0,0 -0,0 -0,0l-0.02 0.01c-0,0 -0,0 -0,0 -0,0 -0,0 -0,0l-0.01 0.01c-0,0 -0,0 -0,0l-0.01 0c-0,0 -0,0 -0,0l-0.03 0.02c-0,0 -0,0 -0,0l-0 0c-0,0 -0,0 -0,0l-0.02 0.01c-0,0 -0.01,0.01 -0.01,0.01l-0.08 0.05c-0,0 -0,0 -0,0l-0.04 0.03c-0,0 -0,0 -0,0l-0.03 0.02c-0,0 -0,0 -0,0l-0.01 0.01c-0,0 -0.01,0.01 -0.01,0.01 -0,0 -0,0 -0.01,0.01l-0.05 0.04c-0.01,0.01 -0.02,0.01 -0.04,0.03 -0,0 -0,0.01 -0.01,0.01l-0.04 0.04c-0,0 -0,0 -0,0 -0.01,0.01 -0.02,0.01 -0.03,0.03l-0.01 0.01c-0.02,0.03 -0.01,0 -0.02,0.04 -0,0 -0,0 -0,0 -0.01,0.02 -0,0.05 0,0.06l0.01 0.03c0,0 0,0 0,0l0.02 0.05c0,0 0,0 0,0 0,0 0,0 0,0l0.02 0.04c0,0 0,0 0,0l0.02 0.08 -0 0.02c-0,0 -0,0 -0,0.01 -0,0 -0,0 -0,0l-0 0.01c-0.01,0.01 -0.01,0.02 -0.02,0.02l-0.01 0.01c-0,0 -0,0 -0,0 -0,0 0,0 -0.01,0 -0,0 -0.01,0 -0.01,0 -0.03,0 -0.02,0 -0.03,-0.01z"/>
   <path class="fil1" d="M0.57 2.42l0.01 0c0,-0.01 0.01,-0.01 0.02,-0.01 0,-0 0,-0 0,-0 0,-0 0,-0 0,-0l0.05 -0.02c0,-0 0,-0 0,-0l0.05 -0.01c0,-0 -0,-0 0.01,-0 0.01,-0 0.01,-0 0.01,-0l0.02 -0c0.01,-0 0.03,0 0.04,-0 0.02,-0.01 -0,-0.01 0.05,-0.01l0.03 0c0.01,0 0.04,0 0.06,0 0.03,-0.01 0.03,0 0.07,-0.02l0.05 -0.02c0,-0 0,-0 0.01,-0l0.03 -0.03c0.01,-0.01 0.01,-0.01 0.02,-0.02 0,-0 0.01,-0.01 0.01,-0.01l0.01 -0.02c0,-0 0,-0 0,-0l0.01 -0.01c0,-0 0,-0 0,-0l0.03 -0.12c0,-0.02 0,0 0,-0.01 0,-0.01 -0,-0.03 0,-0.04 0,-0.01 0,-0 0,-0.01l0.01 -0.05c0,-0 0,-0 0,-0l0.02 -0.03c0,-0 0,-0 0,-0 0,-0 0,-0 0,-0.01 0,-0 0,-0 0,-0.01 0,-0 0,-0 0,-0.01l0.05 -0.06c0.01,-0.02 0.04,-0.04 0.06,-0.06l0.09 -0.1c0.01,-0.02 0.04,-0.04 0.06,-0.06l0.08 -0.09c0,-0 0,-0 0,-0 0.02,-0.03 0.04,-0.05 0.07,-0.07 0.01,-0.01 0.01,-0.02 0.03,-0.04 0.01,-0.01 0.02,-0.02 0.03,-0.04l0 -0.01c0.01,-0.02 0,-0.04 -0,-0.05l-0.01 -0.02c-0.01,-0.02 -0.01,-0.01 -0.01,-0.03 -0.02,-0 -0.01,-0.01 -0.03,-0.02 -0,-0 -0,-0 -0.01,-0l-0 -0c-0.03,-0.01 -0.24,0 -0.27,-0l-0.01 -0c-0,-0 -0,-0 -0,-0l-0.01 -0c-0.01,-0 -0,-0 -0.01,-0l-0.03 -0.02c-0,-0 -0,-0 -0,-0 -0.02,-0.03 -0.02,-0.07 -0.01,-0.09l0.02 -0.04c0,-0 0,-0 0,-0 0.01,-0.01 0.02,-0.02 0.02,-0.03l0.04 -0.05c0.01,-0.01 0.02,-0.02 0.02,-0.03 0,-0 0,-0 0,-0l0.02 -0.02c0,-0 0,-0 0,-0 0.01,-0.01 0.02,-0.02 0.02,-0.02 0,-0 0,-0 0,-0 0,-0 0,-0 0,-0 0,-0 0,-0 0,-0l0.02 -0.02c0,-0 0,-0 0,-0.01l0.02 -0.03c0,-0 0,-0.01 0.01,-0.01 0,-0 0.01,-0.01 0.01,-0.01 0,-0 0,-0 0,-0.01 0,-0 0,-0 0,-0l0 -0.01c0,-0 0.01,-0.01 0.01,-0.01l0.01 -0.01c0,-0 0,-0 0,-0l0.02 -0.02c0,-0 0,-0 0,-0.01 0.01,-0.01 0.01,-0.01 0.02,-0.02 0.01,-0.02 0.03,-0.04 0.04,-0.05 0,-0 0,-0 0,-0 0,-0 0,-0 0,-0l0.04 -0.05c0.01,-0.01 0.02,-0.02 0.02,-0.03l0.02 -0.03c0,-0 0,-0 0,-0l0.05 -0.07c0,-0 0,-0 0,-0l0 -0.01c0,-0 0,-0 0,-0l-0 -0.06 -0.03 -0.04c-0.02,-0.02 -0.04,-0.02 -0.06,-0.03 -0.02,-0 -0.61,-0 -0.71,-0 -0.01,-0 -0.01,-0 -0.02,-0l-0.02 0c-0.01,0 -0.02,-0 -0.04,0.01l-0.02 0.01c-0.02,0.01 -0.04,0.03 -0.06,0.05 -0.02,0.03 -0.01,0.01 -0.03,0.06 -0.01,0.04 -0,0.09 -0,0.12l0 1.33c0,0.03 0,0.06 -0.01,0.09 -0,0 -0,0 -0,0 -0.01,0.01 -0.01,0.02 -0.02,0.03l-0.02 0.02c-0,0 -0.01,0.01 -0.01,0.01 -0.01,0.01 -0,0 -0.01,0.01l-0.03 0.01c-0,0 -0,0 -0,0l-0.04 0.03c-0.01,0 -0.01,0.01 -0.01,0.01 -0.02,0.02 -0.05,0.05 -0.06,0.06l-0.02 0.02c-0,0 -0,0 -0,0l-0 0c-0,0 -0,0 -0,0 -0,0.01 -0.01,0.03 -0,0.05l0.02 0.03c0,0 0,0 0,0 0,0 0,0 0,0 0,0 0,0 0,0 0,0 0,0 0,0 0,0 0,0 0,0l0.01 0c0.01,0.01 0.01,-0 0.02,0.01z"/>
  </g>
 </g>
</svg>
