<?xml version="1.0" encoding="UTF-8"?>
<!DOCTYPE svg PUBLIC "-//W3C//DTD SVG 1.0//EN" "http://www.w3.org/TR/2001/REC-SVG-20010904/DTD/svg10.dtd">
<!-- Creator: CorelDRAW 2021 (64-Bit) -->
<svg xmlns="http://www.w3.org/2000/svg" xml:space="preserve" width="12.7mm" height="12.7mm" version="1.0" style="shape-rendering:geometricPrecision; text-rendering:geometricPrecision; image-rendering:optimizeQuality; fill-rule:evenodd; clip-rule:evenodd"
viewBox="0 0 3.67 3.67"
 xmlns:xlink="http://www.w3.org/1999/xlink"
 xmlns:xodm="http://www.corel.com/coreldraw/odm/2003">
 <defs>
  <style type="text/css">
   <![CDATA[
    .fil0 {fill:#990000}
    .fil2 {fill:#990000;fill-rule:nonzero}
    .fil1 {fill:white;fill-rule:nonzero}
   ]]>
  </style>
 </defs>
 <g id="Livello_x0020_1">
  <metadata id="CorelCorpID_0Corel-Layer"/>
  <path class="fil0" d="M0.44 0l2.79 0c0.24,0 0.44,0.2 0.44,0.44l0 2.79c0,0.24 -0.2,0.44 -0.44,0.44l-2.79 0c-0.24,0 -0.44,-0.2 -0.44,-0.44l0 -2.79c0,-0.24 0.2,-0.44 0.44,-0.44z"/>
  <path class="fil1" d="M1.83 3.08l1.57 -1.96c-0.06,-0.05 -0.67,-0.54 -1.57,-0.54 -0.91,0 -1.51,0.49 -1.57,0.54l1.57 1.96 0 0 0 -0z"/>
  <path class="fil2" d="M2.33 1.36l-0.16 0 0 -0.6c0,-0.01 -0.01,-0.02 -0.02,-0.02 -0.01,0 -0.01,0 -0.01,0.01l-0.13 0.13 -0.32 0 -0.13 -0.13c-0,-0 -0.01,-0.01 -0.01,-0.01 -0.01,0 -0.02,0.01 -0.02,0.02l-0 0.6 -0.16 0 -0.41 -0.16c0.02,0.31 0.1,0.62 0.24,0.89l0.16 -0.16 0.24 0.08 0.24 0.32 0.24 -0.32 0.24 -0.08 0.16 0.16c0.14,-0.28 0.23,-0.58 0.24,-0.89l-0.41 0.16z"/>
 </g>
</svg>
